<?xml version="1.0" standalone="no"?>
<!DOCTYPE svg PUBLIC "-//W3C//DTD SVG 1.1//EN" "http://www.w3.org/Graphics/SVG/1.1/DTD/svg11.dtd" >
<svg xmlns="http://www.w3.org/2000/svg">
<metadata></metadata>
<defs>
<font id="a_year_without_rainregular" horiz-adv-x="1076" >
<font-face units-per-em="2048" ascent="1638" descent="-410" />
<missing-glyph horiz-adv-x="1024" />
<glyph horiz-adv-x="0" />
<glyph unicode="&#xd;" horiz-adv-x="1024" />
<glyph unicode=" "  horiz-adv-x="1024" />
<glyph unicode="&#x09;" horiz-adv-x="1024" />
<glyph unicode="&#xa0;" horiz-adv-x="1024" />
<glyph unicode="!" horiz-adv-x="424" d="M92 38q0 18 10 35t24 32t29 27t25 18q14 -12 28 -34t21 -44t5 -42t-16 -28t-45 -1t-81 37zM148 378q2 176 7 348t10 355t9 383t6 434q14 44 35 62t40 17t34 -14t21 -31q-10 -178 -8 -371t1 -391t-10 -396t-41 -386q-4 -36 -19 -54t-33 -19t-33 15t-19 48z" />
<glyph unicode="&#x22;" horiz-adv-x="474" d="M34 1880q0 20 7 31t33 25q6 -4 20 -18t18 -20q38 -90 59 -161t30 -142t10 -151t1 -188h-62q-2 60 -21 143t-40 170t-38 169t-17 142zM250 1924q-12 78 2 95t34 4t37 -41t13 -42l5 -50t11 -125t15 -163t15 -163t11 -126l5 -51q0 -22 -5 -31t-33 -23l-38 38z" />
<glyph unicode="#" horiz-adv-x="2000" d="M18 716q-4 38 18 60t54 33t65 14t51 7q22 4 66 10t100 14t118 16t117 15t99 13t66 8l76 340h76v-330q70 0 121 -5t96 -6t91 6t106 33q4 12 15 44t23 68l23 69l15 45q14 34 20 57t34 23q22 0 35 -10t25 -32q-4 -10 -9 -37t-11 -57t-11 -57t-7 -39q-2 -8 2 -37t4 -37h408 l38 -38q-6 -20 -38 -34t-80 -25t-104 -19t-109 -14t-96 -12t-63 -10q-4 -12 -9 -45t-11 -69t-11 -68t-7 -44q0 -8 1 -29t2 -44t3 -44t2 -29q90 0 177 19t177 19q0 -42 -25 -71t-63 -49t-85 -33t-91 -20t-81 -12t-55 -9q-2 -12 -8 -38t-17 -51t-28 -44t-41 -19q-44 0 -61 7 t-19 20t3 33t5 46q-38 0 -86 4t-98 4t-97 -7t-81 -31q-16 -10 -22 -36l-12 -52t-18 -46t-44 -20q-30 0 -42 20t-13 49t2 58t3 47h-276q0 12 2 22t2 19t4 15q2 8 7 21t11 25t11 21t7 9h228q2 0 7 13t11 31t11 37t7 31q2 14 8 52t12 80t11 80t7 52q-34 32 -60 36t-66 4 q-132 0 -258 -20t-256 -20h-114zM876 338q4 0 24 1t24 1q16 2 59 7t91 11t91 12t61 8q42 102 62 210t20 218q-152 0 -239 -18t-130 -69t-53 -142t-10 -239z" />
<glyph unicode="$" horiz-adv-x="1358" d="M69 325q-1 35 5 72t21 65t47 28q0 -36 7 -108t26 -145t54 -127t91 -54q24 0 36 18t16 42t4 50v44q2 16 4 65t6 115t9 141t9 141t6 115t4 65v44q0 46 -24 88t-54 85t-54 91t-24 106q0 72 24 125t59 97t74 85t68 88t43 106t0 141q4 0 19 2t19 2q48 0 64 -24t15 -60t-10 -76 t-9 -70h142q0 4 -6 41t-7 79t10 76t45 34q18 0 35 -10t23 -32q4 -12 10 -45t12 -69t11 -68t5 -44q12 -4 32 -13t39 -21t32 -27t13 -33q0 -30 -12 -41t-30 -12t-38 3t-36 4v-728q20 -18 69 -65t103 -101t102 -104t66 -70q40 -46 58 -90t18 -96q0 -94 -51 -150t-122 -93 t-149 -67t-132 -70q-14 -10 -24 -44t-21 -70t-27 -64t-40 -28q-30 0 -30 27t4 60t-1 60t-47 27q-8 0 -39 -1t-65 -2t-61 -2l-27 -1q-10 -6 -19 -26t-15 -44t-7 -47t5 -33h-76q10 70 -8 122t-52 97t-77 84t-80 82t-63 94t-26 117q0 12 -1 47zM374 1288q0 -26 1 -46t5 -39 t12 -40t22 -47q34 58 36 110t2 116v114q-44 -28 -61 -74t-17 -94zM484 -16h232l24 768l-224 138q-26 -248 -29 -483t-3 -423zM562 1052q0 -40 17 -60t41 -33t50 -27t46 -42q22 10 30 23t8 33q6 66 14 137t12 146t1 151t-19 152h-160q-4 -36 -11 -94t-13 -125t-11 -136 t-5 -125zM856 -22q40 0 100 25t115 65t95 87t40 93q0 48 -33 100t-81 98t-100 84t-88 58q-28 -152 -38 -304t-10 -306z" />
<glyph unicode="%" horiz-adv-x="1890" d="M74 804q-16 74 7 156t79 148t140 106t190 32q10 -30 29 -63t47 -51q8 0 26 -1t39 -2t40 -2t27 -1q60 0 113 15t105 32t105 32t111 15v-88l-188 -1132q-34 0 -56 17t-36 42t-19 55t-5 56q0 104 25 204t54 200t54 201t25 207v22t-1 34t-2 34t-1 22l-340 -112 q12 -78 -7 -148t-63 -122t-108 -82t-142 -30q-112 16 -172 73t-76 131zM224 868q0 -22 4 -57t16 -66t35 -51t61 -14q94 16 143 59t49 127q0 60 -22 91t-49 54t-52 48t-31 73q-36 -30 -65 -58t-49 -58t-30 -66t-10 -82zM1356 626q0 34 12 71t32 71t48 61t62 39q40 16 96 -27 t108 -109t91 -135t45 -107q8 -52 -17 -94t-66 -72t-90 -46t-91 -16q-82 0 -129 29t-69 79t-27 116t-5 140zM1465 487q7 -39 26 -61t40 -33t43 -15t34 -4q18 0 39 2t39 9t31 23t19 44q6 36 -16 84t-58 91t-78 73t-74 30q-32 -86 -42 -145t-3 -98z" />
<glyph unicode="&#x26;" horiz-adv-x="1000" d="M18 998q0 96 56 161t137 106t173 63t166 34q10 0 24 -14t14 -24q0 -4 -4 -16t-10 -24t-13 -22t-11 -12q-54 14 -125 3t-136 -44t-110 -86t-45 -121q0 -34 26 -59t62 -41t74 -24t64 -8q78 0 152 21t152 21q8 0 37 -1t37 -1q6 -38 -23 -60t-76 -39t-102 -34t-103 -46 t-80 -76t-32 -123q0 -36 6 -70t21 -61t40 -44t65 -17q46 0 118 8t139 30t115 62t48 104q30 0 62 -17t32 -51q0 -58 -61 -103t-143 -77t-164 -49t-126 -17q-132 0 -200 74t-68 194v37t1 47t2 42t1 22t7 20t14 36t13 36t4 20q-6 28 -43 49t-79 46t-75 58t-33 87zM360 1684 q0 28 19 42t45 20t52 6h42q0 -20 -3 -43t-12 -42t-24 -32t-41 -13q-28 0 -53 13t-25 49zM550 -222q4 20 18 28t32 11t35 2t29 -1h37t37 -2q-4 -12 -12 -32t-20 -39t-28 -32t-34 -13q-34 0 -54 25t-40 53z" />
<glyph unicode="'" horiz-adv-x="320" d="M38 1548q22 40 56 40q48 0 81 -54t54 -128t31 -151t10 -125q0 -24 -1 -56t-10 -61t-29 -50t-60 -21q-16 0 -36 9t-20 31q0 4 6 21t13 36t13 35t6 20q0 2 1 24t1 32q0 102 -37 205t-79 193z" />
<glyph unicode="(" horiz-adv-x="698" d="M114 630q0 62 18 174t50 245t79 270t106 249t128 183t147 71q24 0 46 -5t32 -35q-118 -130 -205 -251t-144 -252t-84 -279t-27 -330q0 -128 9 -256t41 -248t93 -228t165 -194q0 -10 -14 -24t-22 -14q-82 0 -145 55t-110 142t-78 194t-50 210t-27 189t-8 134z" />
<glyph unicode=")" horiz-adv-x="754" d="M8 1914l76 76q144 -112 252 -259t178 -312t105 -342t35 -351q0 -66 -14 -162t-41 -201t-67 -213t-91 -201t-112 -163t-133 -98q-6 -4 -18 -1t-24 9t-21 14t-11 16q84 144 160 270t133 254t91 270t34 316q0 172 -42 313t-114 267t-169 246t-207 252z" />
<glyph unicode="*" horiz-adv-x="1018" d="M38 1472v54q56 0 111 -32t105 -76t92 -92l70 -80q-24 34 -30 102t-2 140t13 132t19 78h94l-26 -334q6 26 18 70t29 87t35 75t36 32q28 0 54 -13t26 -49q0 -2 -1 -9t-1 -9q-16 -26 -32 -65t-31 -81t-28 -83t-23 -73q10 0 38 -1t38 -1q44 0 84 8t81 17t82 17t87 8 q0 -42 -25 -69t-65 -45t-88 -27t-93 -13t-83 -5t-56 -3l152 -188q2 4 13 11t23 13t23 10t15 4q12 0 22 -21t17 -48t11 -52t4 -33q0 -58 -27 -60t-72 31t-102 91t-119 118q-2 0 4 -22t16 -53t22 -68t22 -70t17 -55t5 -24q-4 -6 -16 -11t-25 -9t-25 -8t-18 -8q-40 26 -58 69 t-24 90t-2 95t10 86q-34 -12 -54 -39t-30 -60t-13 -67t-3 -60h-142q0 50 12 93t27 84t27 84t12 93q-16 0 -47 -8t-64 -12t-62 3t-41 39q-4 6 -6 16l-4 20t-2 22h162z" />
<glyph unicode="+" horiz-adv-x="1000" d="M54 926q0 16 8 36t32 20h340v400q60 0 90 -46t42 -107t14 -121t4 -88l356 -2v-76q-30 -8 -78 -18t-102 -19t-106 -19t-88 -18v-414l-132 38v358h-340q-4 0 -18 22t-20 34q0 2 -1 9t-1 11z" />
<glyph unicode="," horiz-adv-x="362" d="M36 -114q46 40 71 105t46 125t43 102t62 40q18 -10 23 -44t-1 -80t-22 -97t-40 -96t-56 -76t-68 -37q-24 0 -41 17t-17 41z" />
<glyph unicode="-" horiz-adv-x="1208" d="M56 804q0 18 11 26t26 11t29 3h22q134 -14 217 -20t139 -8t99 -2t97 -4t130 -16t200 -34q32 -6 58 -12t46 -18t31 -34t11 -58q-154 18 -280 31t-249 22t-254 17t-295 20q-4 2 -11 13t-13 23t-10 23t-4 17z" />
<glyph unicode="." horiz-adv-x="284" d="M60 164q14 0 42 1t56 -5t49 -21t21 -45q0 -14 -3 -31t-9 -32t-17 -25t-29 -10q-30 0 -50 18t-34 44t-20 55t-6 51z" />
<glyph unicode="/" horiz-adv-x="1132" d="M16 56q0 4 1 11t1 9l974 1684q30 -16 58 -39t24 -61l-942 -1660q0 -2 -13 -4t-19 -2q-30 0 -57 14t-27 48z" />
<glyph unicode="0" d="M52 482q0 66 14 166t42 210t72 221t104 199t137 143t173 55q82 0 144 -37t107 -97t76 -138t49 -160t26 -161t8 -141q2 -168 -44 -308t-131 -239t-206 -151t-267 -46q-88 0 -146 51t-93 126t-50 158t-15 149zM204 480q0 -62 7 -122t30 -106t65 -75t112 -29q102 8 194 63 t158 138t99 184t19 201q-16 116 -28 210t-41 167t-84 127t-157 90q-44 0 -88 -52t-86 -132t-78 -179t-63 -193t-43 -173t-16 -119z" />
<glyph unicode="1" horiz-adv-x="830" d="M18 1176v108q22 2 75 17t111 35t110 38t74 24q68 22 116 78t85 114t67 103t60 45q34 0 47 -24t9 -54l-302 -1622q-2 -10 -30 -24t-44 -14q-10 0 -23 4t-25 10t-20 13t-8 11l226 1282q-54 -46 -118 -75t-133 -44t-140 -20t-137 -5z" />
<glyph unicode="2" horiz-adv-x="1000" d="M38 41q-2 21 0 35q46 18 77 32t59 29t59 33t77 46q66 88 141 185t139 201t106 215t44 229q0 24 -27 77t-67 106t-87 94t-85 41q-34 0 -72 -24t-71 -55t-60 -63t-41 -48q-10 6 -27 19t-32 28t-22 33t5 34q74 80 124 125t85 68t59 30t48 11q50 10 102 -9t100 -58t89 -94 t71 -115t45 -122t11 -114q-16 -166 -69 -292t-118 -226t-130 -181t-105 -155q10 -16 57 -33t116 -29t154 -15t175 9l-10 -114q-48 -36 -130 -44t-174 4t-182 41t-152 69q-32 0 -60 -15t-54 -33t-53 -33t-59 -15q-16 0 -27 15t-19 36t-10 42z" />
<glyph unicode="3" horiz-adv-x="944" d="M84 226q0 24 17 40t41 16q36 0 56 -30t38 -65t43 -65t71 -30q86 -6 163 39t136 118t94 163t34 171t-43 144t-136 83q-52 0 -98 -21t-96 -21q-24 0 -40 17t-16 43q0 18 23 55t57 86t73 108t73 122t57 127t23 124q-14 44 -37 48t-53 -15t-66 -53t-74 -64t-79 -49t-79 -7 q0 66 38 125t95 104t125 72t128 27q78 -12 117 -61t48 -116t-4 -143t-40 -144t-61 -117t-64 -63q100 -18 162 -78t91 -146t26 -189t-33 -205t-85 -194t-131 -156t-171 -93t-205 -3q-48 0 -89 27t-69 70t-44 95t-16 104z" />
<glyph unicode="4" horiz-adv-x="1094" d="M33 946q1 2 1 4q0 42 11 66t29 42t41 34t47 40q20 20 40 68t37 107t34 122t33 115t31 86t31 34q42 0 51 -31t9 -65q0 -64 -18 -128t-40 -126t-40 -123t-18 -117q0 -22 31 -39t80 -29t109 -20t116 -13t102 -7t68 -2l34 598q-4 8 17 17t48 12t48 -3t19 -26q2 -46 2 -135 t-1 -204t-4 -248t-7 -266t-10 -256t-12 -220t-14 -157t-16 -68q-12 -18 -43 -21t-57 14t-36 53t18 96v674q-208 30 -346 50t-223 33t-128 21t-59 12t-15 6z" />
<glyph unicode="5" horiz-adv-x="1130" d="M70 94q0 4 1 24t2 43t2 42t1 23q18 -28 45 -50t60 -36t68 -21t69 -7q110 0 195 44t143 117t89 166t31 191q0 32 -17 88t-49 110t-78 90t-104 26q-54 -10 -94 -38t-70 -66t-53 -80t-44 -77t-44 -58t-53 -23q-22 0 -39 19t-17 59q4 58 8 141t6 175l4 184t6 171t10 135 t16 76l704 98q32 6 61 -4t52 -30t36 -47t13 -57q-172 0 -349 -25t-341 -63q-22 -52 -30 -103t-10 -102t1 -103t1 -108q148 54 257 47t184 -58t116 -136t51 -186t-10 -208t-67 -201t-120 -167t-170 -105t-216 -14t-257 104z" />
<glyph unicode="6" horiz-adv-x="886" d="M36 320q0 178 52 366t131 372t172 357t175 321q6 18 23 28t36 15t39 5h34q0 -22 -4 -48t-19 -73t-45 -121t-82 -194t-131 -292t-191 -414q-16 -40 -30 -117t-13 -156t27 -142t92 -77q-10 36 -5 89t22 112t45 118t63 106t75 77t82 30q46 0 89 -18t76 -49t54 -73t27 -90 q12 -92 -38 -175t-130 -145t-174 -99t-172 -37q-62 0 -114 30t-89 77t-57 105t-20 112zM454 226q32 -44 72 -31t75 52t58 89t21 80q0 12 -3 31t-10 37t-18 32t-25 16q-40 0 -71 -39t-53 -90t-34 -102t-12 -75z" />
<glyph unicode="7" horiz-adv-x="792" d="M40 1656q6 18 25 31t47 13q36 0 68 -7t65 -15t67 -15t72 -7q50 0 88 2t75 10t77 24t94 44v-34t1 -51t1 -51v-34q0 -384 -47 -753t-145 -737q-2 -8 -8 -21t-12 -25t-11 -21t-7 -9q-42 -10 -65 -6t-34 17t-14 33t-3 42q50 134 89 314t64 374t35 385t4 351q-36 2 -99 4 t-133 10t-139 22t-119 38q-26 14 -34 34t-2 38z" />
<glyph unicode="8" horiz-adv-x="1000" d="M54 358q0 190 72 338t194 286q-58 48 -95 84t-58 73t-30 83t-9 116q-8 140 32 264t107 214t151 141t162 47q88 0 153 -63t109 -152t65 -188t21 -171q0 -62 -21 -118t-51 -104t-63 -86t-57 -66q52 -68 83 -164t40 -204t-7 -219t-59 -206t-114 -165t-171 -98 q-98 -10 -181 8t-144 62t-95 116t-34 172zM197 352q13 -92 69 -159t168 -79q92 12 149 64t88 127t38 165t-3 178t-33 166t-51 130h-8h-6q-2 0 -2 2q-94 0 -174 -59t-137 -147t-84 -192t-14 -196zM242 1358q0 -46 9 -94t31 -86t59 -62t93 -24q74 0 137 26t109 72t72 108 t26 134q0 30 -12 94t-34 128t-54 112t-72 48q-80 0 -147 -45t-115 -113t-75 -148t-27 -150z" />
<glyph unicode="9" horiz-adv-x="1000" d="M36 1280q8 100 51 200t112 183t157 140t184 72t195 -21t189 -138q0 -198 -11 -416t-30 -438t-43 -431t-48 -393q-6 -18 -20 -28t-31 -15t-35 -6t-32 -1q0 152 14 303t30 303t27 305t9 309q-68 -38 -119 -69t-97 -52t-94 -32t-108 -11q-42 0 -94 15t-98 45t-77 74t-31 102 zM188 1320q12 -62 52 -96t94 -41t115 11t116 60t96 106t57 150q0 2 1 9t1 11q0 38 -20 70t-50 55t-66 36t-70 13q-58 0 -117 -39t-105 -96t-75 -125t-29 -124z" />
<glyph unicode=":" horiz-adv-x="320" d="M68 956q0 36 30 66t66 30q30 0 45 -20t20 -48t5 -56v-42h-43t-55 5t-48 20t-20 45zM70 296q22 46 48 63t68 17q34 0 53 -15t19 -65q0 -78 -54 -78q-38 0 -76 23t-58 55z" />
<glyph unicode=";" horiz-adv-x="320" d="M34 -276q30 68 43 148t29 141t47 87t95 -14q-10 -34 -16 -100t-14 -132t-23 -116t-43 -48q-12 0 -31 -1t-37 0t-32 9t-18 26zM52 631q-12 25 0 54t41 52t59 21q34 0 54 -13t20 -65q0 -12 -17 -25t-39 -25q-24 -14 -56 -26q-50 2 -62 27z" />
<glyph unicode="&#x3c;" horiz-adv-x="1094" d="M34 424l9 9l21 21l25 25t21 19q24 20 74 62t113 94t133 110t133 110t113 92t74 60q40 32 83 40t91 8q0 -50 -37 -103t-95 -108t-130 -109t-142 -106t-129 -100t-93 -88h604q4 4 14 11t22 13t23 10t17 4q18 0 26 -13t11 -29t3 -32v-24q0 -46 -20 -68t-74 -22 q-38 12 -114 14t-170 1t-195 -1t-187 9t-148 30t-76 61z" />
<glyph unicode="=" horiz-adv-x="812" d="M58 603q-6 23 3 45t29 41t42 27q20 2 61 5t93 6t109 8t110 8t94 6t61 5h22q34 0 46 -25t12 -53q0 -24 -11 -38t-28 -21t-38 -9t-41 -4t-61 -5t-94 -6t-110 -8t-109 -8t-93 -6t-61 -5q-30 14 -36 37zM95 300q19 30 69 45t123 20t151 5t151 1t127 9q30 -10 36 -32t6 -46 q0 -30 -43 -47t-109 -26t-145 -12t-151 -3t-128 2t-76 2q-30 52 -11 82z" />
<glyph unicode="&#x3e;" horiz-adv-x="1056" d="M54 1076q0 42 32 51t66 9q42 0 82 -12t79 -30t79 -39t80 -37q18 -6 56 -18t86 -27t102 -31t102 -31t87 -27t57 -16q54 -40 39 -91t-73 -108t-145 -121t-179 -131t-175 -135t-133 -136q-46 0 -75 15t-29 67v29t4 11t12 10t24 24q30 40 83 86t113 94t121 95t111 88t81 74 t31 53l-678 226q-40 14 -40 58z" />
<glyph unicode="?" horiz-adv-x="1018" d="M76 1306q30 88 89 160t134 124t158 82t160 36t143 -14t105 -69t44 -128t-37 -191q-48 -122 -126 -215t-157 -159t-143 -105t-84 -51q-38 0 -53 15t-23 61q174 110 286 235t162 234t39 186t-81 91t-200 -52t-318 -240h-98zM302 150q2 38 23 54t47 13t49 -23t27 -56 q6 -18 -13 -47t-45 -41t-52 6t-36 94z" />
<glyph unicode="@" horiz-adv-x="1660" d="M52 600q0 126 24 262t73 267t123 249t173 207t225 141t280 52q140 0 254 -47t195 -131t126 -199t45 -251q0 -52 -7 -116t-24 -130t-44 -128t-67 -110t-93 -77t-121 -29q-50 0 -101 10t-96 33t-80 60t-51 91q-52 -34 -83 -91t-63 -113t-75 -96t-119 -40q-88 0 -140 58 t-52 142q0 70 12 154t40 167t71 155t107 118q30 30 76 50t101 29t116 8t123 -11q-2 -20 -3 -68t-1 -102t1 -103t3 -67q2 -34 15 -79t36 -86t57 -70t80 -29q46 -8 96 18t86 99t51 200t-7 323q0 78 -43 136t-106 95t-134 56t-129 19q-192 0 -347 -86t-263 -224t-166 -314 t-58 -356q0 -122 21 -215t70 -156t133 -96t210 -33q150 0 270 43t216 108t171 141t133 141t101 108t79 43q0 -116 -46 -213t-122 -174t-174 -135t-205 -97t-214 -58t-199 -19q-156 0 -263 31t-173 99t-95 175t-29 261zM496 550q56 0 101 29t81 76t63 106t47 120t35 117 t25 96q-10 22 -23 31t-33 9q-64 0 -110 -33t-79 -86t-54 -118t-33 -130t-16 -123t-4 -94z" />
<glyph unicode="A" horiz-adv-x="966" d="M40 -34q6 14 18 54t27 94t31 115t30 115t25 94t17 52t12 30l12 36t10 32t4 16t-12 8t-25 11t-25 10t-12 9q-2 2 -3 14t-1 20q0 32 14 52t36 33t49 20t55 11q64 234 115 473t111 471q12 20 28 41t37 39t44 30t51 12q6 0 18 -3t12 -5l112 -982q8 6 29 13t45 13t46 10t32 2 q6 -2 18 -11t24 -21t22 -24t10 -20q-16 -24 -44 -42t-59 -32t-64 -23t-59 -17q36 -176 43 -369t7 -369q-58 0 -92 39t-52 100t-24 139t-9 156t-7 149t-16 119q-16 0 -53 -5t-79 -11t-80 -13t-52 -9q-2 0 -6 -6t-13 -27t-25 -63t-40 -117t-59 -188t-83 -275h-150zM454 792 l226 38v16q-2 26 -8 77t-13 116t-15 137t-16 137t-15 118t-9 79q-40 -170 -78 -341t-72 -357v-20z" />
<glyph unicode="B" horiz-adv-x="1264" d="M92 287v53q0 264 21 525t21 525q0 32 -7 49t-14 30t-14 25t-7 34q0 56 27 92t70 60t98 36t110 17t105 5h86q46 0 92 -7t84 -28t61 -58t23 -97t-15 -132t-37 -144t-48 -138t-50 -116q60 -38 119 -60t114 -42t103 -41t83 -57t55 -91t20 -141q0 -134 -48 -243t-131 -186 t-196 -119t-243 -42q-30 0 -100 2t-147 9t-144 20t-89 33v53t-1 87t-1 87zM242 423q0 -49 1 -103t1 -102v-68q8 66 44 74q12 3 26 3q27 0 60 -11q50 -16 108 -41t110 -27q100 0 188 26t154 80t104 137t38 195q0 80 -42 129t-104 76t-136 35t-136 8q-70 0 -147 -16t-139 -16 q-22 0 -27 1t-7 7t-4 20t-14 38q66 86 133 146t122 124t90 149t35 223q-2 50 -33 76t-77 32q-16 2 -33 2q-32 0 -67 -7q-54 -11 -100 -36t-77 -62t-31 -81q-14 -136 -22 -252t-12 -227t-5 -224t-1 -241v-67z" />
<glyph unicode="C" horiz-adv-x="1062" d="M34 888q8 122 42 243t86 230t117 199t135 151t140 86q37 13 72 13q31 0 59 -10q61 -22 109 -97t76 -215q-4 0 -19 2t-32 5t-32 7t-19 6q-48 86 -98 112q-31 16 -62 16q-19 0 -37 -6q-49 -16 -95 -67t-87 -122t-75 -153t-59 -161t-40 -147t-17 -108q-1 -19 -1 -42 q0 -34 2 -74q3 -68 14 -145t32 -154t57 -141t88 -110t124 -58q68 0 125 36t109 79t105 79t115 36q8 0 22 -15t14 -23q-52 -60 -104 -122t-111 -112t-126 -82t-149 -32q-88 0 -157 45t-123 119t-92 168t-62 194t-35 196t-11 174z" />
<glyph unicode="D" horiz-adv-x="1284" d="M73 1525q1 23 3 44t2 35q0 34 27 50t68 20q18 2 38 2q25 0 51 -3q48 -5 92 -12t77 -14t43 -7q156 0 291 -67t234 -181t156 -265t57 -319q-8 -104 -60 -214t-135 -210t-190 -183t-227 -134t-244 -62q-25 -2 -49 -2q-98 0 -193 35l-30 1410q-8 12 -10 33q-1 14 -1 29v15z M232 1502l32 -1352h38q72 0 159 27t175 74t170 111t146 138t103 153t39 159q0 48 -17 125t-56 162t-104 167t-160 142t-225 89q-71 16 -154 16q-69 0 -146 -11z" />
<glyph unicode="E" horiz-adv-x="1078" d="M56 114l20 1372q4 16 67 32t158 29t207 23t214 17t179 11t103 4q20 0 44 -2t43 -9t32 -22t13 -41q0 -40 -38 -61t-102 -30t-145 -9t-167 1t-170 1t-153 -9t-115 -28t-56 -57q4 -16 4 -40q0 -12 -1 -25q-3 -41 -8 -89t-7 -100v-21q0 -41 6 -79q43 -3 97 -3h28q71 1 147 3 t151 5t135 5q0 -62 -19 -96t-95 -56q-28 -6 -90 -8t-132 -2t-132 -1t-90 -3q2 -84 4 -177q1 -46 1 -91.5t-1 -88.5q-2 -87 -7 -160t-15 -119q35 3 81 4q11 0 23 -1q60 -1 128 -4t140 -4h47q46 0 90 1q65 2 120 11t91 29q78 0 78 -54q2 -10 -3 -25t-13 -30t-15 -27t-9 -14 l-754 -76h-5q-14 0 -32 9q-21 11 -39 29t-30 38q-9 15 -9 29q0 5 1 9z" />
<glyph unicode="F" horiz-adv-x="836" d="M31 1391q-2 9 -2 18q0 16 6 31q9 24 28 47t39 45q44 -3 90 -3q39 0 79 2q89 5 178 15t174 19t157 9q28 0 51 -12t23 -46q0 -40 -47 -62t-119 -33t-154 -13t-154 -4t-119 -6t-47 -18l10 -544q53 -9 118 -9h13q73 1 146 13t141 35t116 57q24 0 37 -31t13 -55q0 -36 -43 -63 t-108 -48t-141 -35t-141 -25t-108 -20t-43 -17l8 -638h-132l5 175t5 228q1 82 1 168v88q-1 133 -5 259t-14 236t-28 188q-28 24 -33 49z" />
<glyph unicode="G" horiz-adv-x="1246" d="M48 532q-8 47 -8 99q0 56 9 119q17 122 60 247t110 240t155 200t193 125q66 25 137 25q43 0 88 -9q56 -18 86 -44t35 -51t-16 -44t-69 -23q-6 -2 -35 -5t-72 -10t-94 -21t-99 -35t-88 -53t-60 -76q-52 -52 -87 -127t-57 -159t-31 -170t-9 -158q0 -106 20 -193t68 -148 t126 -95t194 -34q60 0 130 5t128 26t97 65t39 122v66t-7 67t-27 52t-62 21q-50 0 -98 -13t-94 -28t-94 -28t-98 -13q-44 0 -70 15q-23 13 -23 51q0 6 1 12q40 12 121 37t171 51t171 46t121 20q24 0 55 -3t39 -39q14 -84 25 -180t17 -195q5 -85 5 -168v-28q-1 -97 -9 -183 q-41 -26 -67 -26h-4q-27 2 -43 28t-24 74t-12 112q-46 -30 -96 -46t-102 -23t-106 -8t-106 -1q-106 0 -203 37t-171 104t-117 161t-43 210z" />
<glyph unicode="H" d="M56 76l60 1478q4 0 19 2t19 2q8 0 21 -1t25 -5t20 -12t8 -24v-642h454q44 0 72 24t44 60t24 75t10 69q2 16 5 48t6 73t8 86t8 86t6 73t5 48q4 0 19 2t19 2q78 0 78 -74q0 -158 -13 -338t-26 -365t-22 -366q-5 -96 -5 -185q0 -79 4 -154q-4 -4 -14 -11t-22 -13t-23 -10 t-17 -4q-24 0 -39 28t-23 64t-11 70t-3 46q0 50 2 123t5 151t5 152t2 126q-4 0 -15 1t-15 1q-14 -2 -69 -7t-118 -12t-119 -12t-70 -7h-38q-18 -4 -44 -10t-50 -12t-41 -11l-17 -5l16 -498q32 -10 36 -30t4 -44q0 -78 -74 -78q-10 0 -30 1t-39 6t-33 13t-14 20z" />
<glyph unicode="I" horiz-adv-x="1358" d="M76 1320q140 40 269 81t257 74t259 54t277 21q22 0 54 -17t42 -57q-28 -42 -76 -59t-103 -21t-112 -4t-104 -7t-81 -29t-40 -72q-12 -142 -21 -276t-13 -267q-3 -106 -3 -214v-54q1 -135 7 -275q26 18 76 27t112 10h31q48 0 99 -2q68 -3 130 -5h40t51 -4t43 -16t18 -36 q0 -38 -42 -58q-30 -18 -115 -33t-194 -29t-229 -24t-222 -18t-173 -13t-81 -5q-60 6 -87 21t-31 34t9 38t30 34t31 22t14 3q0 10 23 12t56 1t72 -2h25q24 0 46 1q32 2 53 9t17 23q32 138 48 277t23 281t7 285t-2 289q-66 -18 -124 -33t-115 -26t-118 -16q-44 -4 -92 -4 q-19 0 -39 1z" />
<glyph unicode="J" horiz-adv-x="898" d="M-17 145q-2 7 -2 14q0 27 36 44q20 9 48 9q35 0 81 -14l212 -10q30 42 50 128t33 194t20 229t10 233q2 84 2 157v47q-1 92 -1 144q-16 38 -70 57t-117 26q-55 6 -107 6h-15q-59 -1 -83 -1q0 26 2 51t10 45t26 33t48 13q28 -8 99 -15t164 -12t198 -9t203 -5h64q61 0 116 1 q82 2 128 8q22 -10 31 -23t9 -33q0 -10 -5 -24t-12 -28t-17 -25t-22 -13l-500 -14q-26 -92 -30 -229q-3 -110 -3 -229v-60v-61q0 -121 -3 -240q-4 -149 -30 -266t-85 -185q-50 -58 -137 -58q-16 0 -32 2q-156 4 -232 40t-87 73z" />
<glyph unicode="K" horiz-adv-x="1010" d="M34 44q8 122 18 232t17 219t12 224q4 82 4 172q0 36 -1 74q-2 131 -12 286t-28 345q14 28 39 35q16 4 32 4l18 -1q25 -4 43 -16t18 -22l4 -760q52 10 107 53t110 107t109 144t100 163t84 166t64 153q20 0 32 -4t22 -11t22 -19t32 -26q-8 -82 -46 -176t-91 -187t-118 -177 t-130 -149t-125 -103q-57 -36 -98 -36h-4q74 -66 169 -148t188 -172t174 -183t127 -177q0 -2 -1 -4t-1 -6v-6q-6 -4 -23 -11t-35 -13t-34 -10t-22 -4q-60 64 -133 149t-154 171t-165 162t-168 122l-56 -612q6 12 -10 -6t-36 -31q-10 -6 -19 -6.5t-18 6.5q-17 13 -17 89z" />
<glyph unicode="L" horiz-adv-x="768" d="M54 45q-11 10 -11 26q0 18 13 43q6 106 15 229t18 255t17 267t11 263t3 245t-8 215q-1 7 -1 15q0 40 19 73q22 40 52 53q11 5 22 5q19 0 37 -14q29 -22 41 -98q9 -57 9 -143q0 -49 -3 -108q-8 -161 -25 -358t-36 -411t-29 -412l472 -26q30 2 49 -21t24 -52q2 -10 2 -19 q0 -19 -7 -37q-10 -27 -40 -35q-56 22 -132 25q-38 2 -77 1.5t-79 -1.5q-80 -3 -154 -7q-33 -2 -62 -2q-36 0 -65 3q-53 5 -75 26z" />
<glyph unicode="M" horiz-adv-x="1472" d="M58 72v22q2 46 10 147t18 229t20 269t20 269t17 228t11 148q-6 30 2 46t23 23t34 9t35 2q8 0 29 -1t27 -3q42 -92 79 -181t89 -158t127 -111t195 -42q76 0 131 48t96 120t74 155t67 155t72 120t90 48q24 0 44 -5t30 -37q-28 -126 -37 -268t-10 -286v-96q0 -96 1 -191 q1 -57 1 -112q0 -82 -2 -157q-3 -126 -17 -232t-48 -178q-30 -32 -56 -41q-12 -4 -22 -4q-13 0 -23 6q-19 11 -29 41q-8 25 -8 61v15q16 136 28 261t21 248t12 250q2 76 2 158q0 54 -1 111q-68 -136 -174 -220t-260 -84q-66 0 -141 13t-142 44t-118 82t-71 127l-96 -1026 q-4 -52 -20 -65t-50 -13q-28 0 -54 11t-26 45z" />
<glyph unicode="N" horiz-adv-x="1264" d="M69 1169q1 95 9 146t25 68t49 17q24 0 44 -5t30 -37q56 -108 128 -255t158 -302t181 -301t195 -250l132 1184q26 90 47 137t37 62q10 9 18 9q5 0 10 -4q12 -10 20 -33t13 -53l9 -54q0 -20 -2 -43t-7 -73t-15 -137t-27 -234t-42 -366t-61 -531q-4 -46 -42 -63t-72 -17 q-56 0 -86 31t-66 85l-546 868v-980q0 -14 -12 -22t-27 -12t-31 -5t-24 -1q-4 0 -19 1t-19 1q1 125 1 236q0 166 -2 301q-3 225 -5 381q-1 104 -1 181v70z" />
<glyph unicode="O" d="M52 482q0 66 14 166t42 210t72 221t104 199t137 143t173 55q82 0 144 -37t107 -97t76 -138t49 -160t26 -161t8 -141q0 -132 -46 -265t-131 -239t-205 -173t-266 -67q-88 0 -146 51t-93 126t-50 158t-15 149zM204 480q0 -62 7 -122t30 -106t65 -75t112 -29q62 0 132 30 t132 79t107 110t59 123q0 14 1 49t2 74t1 74v49q0 58 -2 124t-12 131t-31 125t-57 106t-91 73t-133 27q-44 0 -85 -51t-76 -131t-65 -178t-51 -192t-33 -172t-12 -118z" />
<glyph unicode="P" horiz-adv-x="1188" d="M54 1340q0 42 38 70t98 47t131 30t136 17t116 7t71 1q66 0 148 -13t154 -45t121 -86t49 -134q0 -92 -36 -164t-96 -128t-138 -96t-162 -66t-169 -42t-157 -22q-24 -70 -35 -164t-12 -190v-47q0 -70 2 -136q3 -87 7 -141q-4 -6 -14 -13t-22 -13t-23 -10q-7 -3 -12 -3 q-3 0 -5 1q-12 2 -31 12t-37 22t-31 24t-13 18v1132q-24 24 -49 60t-29 72zM358 860q44 0 109 7t136 23t142 42t128 64t92 91t35 121q0 58 -47 95t-109 58t-126 29t-96 8q-24 0 -68 -1t-88 -8t-76 -23t-32 -46v-460z" />
<glyph unicode="Q" horiz-adv-x="1208" d="M54 692q0 88 13 185t42 193t75 183t111 153t150 105t193 39q60 0 123 -47t124 -123t113 -172t89 -192t55 -185q12 -57 12 -103q0 -26 -4 -48q-8 -54 -39 -108t-65 -108t-61 -108t-27 -106q0 -48 16 -87t26 -87q0 -58 -28 -71t-68 -13q-44 0 -58 25t-22 55t-19 55t-49 25 q-58 0 -114 -20t-114 -20q-126 0 -215 45t-147 124t-85 185t-27 226zM204 716q-2 -29 -2 -58q0 -59 8 -116q12 -86 51 -151t108 -102q57 -30 140 -30q18 0 37 1q16 0 46 -2q15 -1 30 -1l30 1q30 2 55 11t29 33q0 52 -24 98t-54 91t-54 91t-24 98q0 28 13 52t47 24 q22 0 33 -8t25 -32q8 -16 30 -58t46 -90t45 -91t29 -61q86 64 120 160t34 198q-2 56 -20 127t-50 142t-77 138t-99 117t-117 78q-49 22 -101 22q-15 0 -30 -2q-92 -72 -151 -145t-93 -156t-47 -176t-13 -203z" />
<glyph unicode="R" horiz-adv-x="1226" d="M36 1322q0 19 20 36q38 60 114 106t170 72t197 31q21 1 42 1q80 0 154 -15q93 -19 165 -66t106 -123q0 -76 -30 -143t-81 -126t-115 -109t-131 -92t-133 -77t-118 -63q0 -10 45 -40t114 -69t152 -83t160 -84t137 -72t84 -44q80 -38 134 -52t71 -24q7 -4 7 -8 q0 -7 -16 -15q-26 -13 -108 -47q-114 0 -221 35t-208 87t-198 113t-191 115q-1 -13 -1 -27q0 -29 3 -67q4 -56 4 -118t-6 -123t-28 -110t-61 -79t-105 -30l46 954q0 32 -1 76t-5 89t-12 86t-22 67q-33 -15 -59 -15h-9q-30 3 -47 16q-19 14 -19 37zM358 906q72 18 158 58 t161 97t125 129t50 158q-34 56 -96 79t-133 23t-142 -17t-123 -37v-490z" />
<glyph unicode="S" horiz-adv-x="950" d="M72 424q0 40 7 76t25 63t48 42t78 15q0 -30 -7 -58t-15 -55t-15 -56t-7 -59q0 -58 27 -104t71 -77t98 -47t106 -16q120 32 171 79t54 106v9q0 55 -33 119q-36 69 -91 146t-120 157t-120 162t-91 163q-32 73 -32 142v15q0 86 61 142t148 88t182 45t163 13q28 0 51 -12 t23 -46t-35 -47t-89 -19t-115 -12t-115 -24t-89 -55t-35 -107q0 -20 8 -49t48 -99t124 -197t236 -339q48 -92 50 -185v-9q0 -88 -39 -159q-41 -75 -121 -124t-194 -51q-20 -2 -39 -2q-69 0 -130 28q-79 36 -136 99t-87 143q-25 67 -25 131q0 12 1 25z" />
<glyph unicode="T" horiz-adv-x="966" d="M36 1452q0 46 35 72t75 26q102 0 200 -21t200 -21q100 0 172 3t137 7t135 7t166 3q0 -52 -13 -81t-39 -44t-62 -22t-84 -15q-30 -6 -83 -6t-112 1t-113 1t-84 -4q-18 -68 -31 -167t-21 -214t-13 -240t-8 -244t-5 -224t-4 -183q-24 -42 -41 -74t-32 -42q-5 -4 -11 -4 q-10 0 -20 12q-16 18 -40 74q6 166 16 327t17 322t10 324q1 44 1 89q0 120 -6 244q-10 2 -39 5t-67 6t-80 8t-76 15t-57 24t-23 36z" />
<glyph unicode="U" horiz-adv-x="1056" d="M60 952q-1 78 -1 154t1 149t1 138t-1 121q6 20 21 22t34 -3t39 -13t36 -10q12 -84 12 -207t-2 -262q-1 -70 -1 -140.5t1 -141.5q2 -143 19 -263t53 -206t103 -114q26 -11 56 -11q49 0 112 28q101 45 249 185q-8 130 -13 288q-2 72 -2 145q0 88 3 180q6 167 26 330t62 301 q34 0 66 1h2q31 0 46 -39q-30 -124 -47 -218t-24 -179t-8 -174t-1 -203q0 -104 7 -206t16 -204t17 -204t8 -206q-38 0 -72 15t-57 42t-32 63q-4 15 -4 32q0 22 7 46q-160 -136 -277 -175q-63 -21 -116 -21q-45 0 -82 15q-81 33 -130 126t-77 223t-38 285t-12 311z" />
<glyph unicode="V" horiz-adv-x="1226" d="M56 1396q-3 12 -3 22q0 20 12 35q19 23 45 23q42 0 81 -70t76 -178t73 -241t70 -259t68 -231t68 -157l492 1132q12 32 29 37t45 5q4 0 19 -1t30 -5t24 -12q5 -5 5 -12q0 -5 -2 -12l-604 -1434q-2 -4 -12 -11t-22 -13t-24 -10t-18 -4q-4 0 -19 14t-17 24z" />
<glyph unicode="W" horiz-adv-x="2114" d="M56 1320q10 30 32 36t48 6q44 0 74 -66t53 -167t44 -224t47 -236t63 -203t91 -126l454 1056q8 20 22 28t30 6t32 -12t28 -22q54 -122 121 -259t142 -275t154 -268t157 -240q44 20 70 115t54 253t66 376t104 486q4 24 19 30q10 4 21 4q5 0 11 -1q17 -3 35 -13t28 -20 q0 -146 -23 -308t-60 -329t-81 -331t-86 -314q-28 -52 -53 -93t-52 -57t-60 -1t-75 75l-554 936q-82 -240 -146 -414t-114 -295t-87 -197t-66 -120t-51 -65t-40 -33l-74 76q-58 112 -112 262t-103 314t-90 328t-73 302z" />
<glyph unicode="X" horiz-adv-x="1284" d="M40 1358h160q20 -76 68 -162t108 -171t123 -163t113 -138q40 38 84 105t90 146t94 161t96 149t97 109t97 42q34 0 47 -25q10 -19 10 -40q0 -6 -1 -13q-22 -36 -63 -96t-90 -133t-102 -151t-100 -149t-83 -131t-52 -94q10 -34 39 -73t68 -78t82 -79t82 -79t67 -76t38 -69 q-32 -42 -62 -57q-11 -5 -23 -5q-20 0 -43 16l-324 348q-36 -28 -86 -102t-99 -153t-90 -140t-61 -61q-52 0 -68 26t-16 72q20 76 54 130t72 111t76 128t66 179q-28 30 -74 80t-98 113t-104 133t-95 140t-70 134t-27 116z" />
<glyph unicode="Y" horiz-adv-x="1208" d="M48 1560q6 20 19 29t28 11t33 1t34 -3q48 -104 103 -218t119 -224t140 -211t166 -177q84 208 144 351t101 236t65 143t37 74t18 28t7 4q84 0 84 -82q0 -6 -2 -20t-2 -16l-566 -1548q0 -2 -6 -3t-10 -1q-46 0 -73 37q-24 32 -24 70q0 5 1 11q2 18 15 62t30 102t36 122 t35 120t26 100t8 60q-90 116 -169 227t-150 224t-132 234t-115 257z" />
<glyph unicode="Z" horiz-adv-x="1174" d="M54 1388q0 16 8 24t20 12t24 4h22q76 0 184 3t220 4h55q82 0 160 -2q103 -3 167 -15q40 6 77 6h18q45 -2 71 -16t26 -39t-42 -65q-94 -110 -189 -249t-188 -290t-181 -308t-166 -301h490q12 24 24 32t34 8q26 0 56 -13t56 -35t43 -49t17 -55q0 -4 -1 -19t-3 -19 q-32 -2 -100 -5t-153 -6t-180 -8t-180 -8t-154 -6t-101 -5h-22q-18 0 -32 13t-26 32t-20 38t-12 31q16 20 54 74t80 114t79 113t51 75q22 36 66 105t97 153t107 176t98 174t70 145q23 55 23 84q0 5 -1 9l-670 -28q-10 2 -23 18t-25 36t-20 37t-8 21z" />
<glyph unicode="[" horiz-adv-x="1226" d="M23 1304q-13 258 25 518q86 20 188 37t207 28t205 17t180 6q0 -66 -37 -103t-95 -55t-131 -22t-146 -4t-137 -2t-106 -14q-6 -84 4 -222t28 -307t41 -356t42 -369t30 -346t7 -288q98 -6 196 0t196 15t198 17t202 6q20 -6 32 -28t13 -46t-10 -46t-35 -30q-100 6 -195 0 t-190 -15l-190 -18t-193 -9q-24 0 -51 -1t-52 5t-44 23t-29 53q-6 264 -41 523t-67 517t-45 516z" />
<glyph unicode="\" horiz-adv-x="1358" d="M-4 1838q72 0 136 -38t120 -94t102 -120t80 -114l830 -1284q16 -26 27 -47t11 -49v-16q-4 -6 -15 -17l-23 -23t-23 -22t-15 -14q-80 50 -125 131t-65 171q-26 42 -82 128t-126 194t-148 227t-149 226t-127 193t-84 126q-32 48 -87 99t-107 107t-91 114t-39 122z" />
<glyph unicode="]" horiz-adv-x="1150" d="M-28 1760q0 26 13 39t32 17t40 4h37q86 0 182 -5t191 -11t182 -13t155 -11q54 -238 81 -478t47 -484t39 -490t59 -492v-18q-76 -12 -168 -25t-185 -25t-183 -19t-164 -7q-54 0 -76 23t-22 71q0 8 2 30t4 26q40 2 123 5t176 11t177 22t128 38v22t1 34t1 35v23 q-4 80 -16 210t-27 280t-34 309t-34 295t-27 238t-16 140l-36 74q-26 2 -90 7t-137 11t-137 11t-90 9q-4 0 -40 2t-78 11t-76 28t-34 53z" />
<glyph unicode="^" horiz-adv-x="1132" d="M57 1075q-1 9 1 19q44 80 103 176t115 196t100 198t60 184q18 42 58 42q2 0 6 -3t21 -19t53 -51t100 -98t162 -160t240 -239q28 -72 23 -106t-31 -41t-65 7t-77 42q-12 12 -42 43t-68 70t-80 84t-79 86t-67 72t-42 45l-340 -604q-20 -16 -45 -27t-47 -10t-39 17t-19 58 q0 10 -1 19z" />
<glyph unicode="_" horiz-adv-x="1886" d="M38 114l38 36q222 -6 441 1t435 16t433 18t437 9q0 -60 -25 -91t-65 -44t-88 -16t-96 -5q-14 -2 -55 -4t-95 -6t-115 -9t-115 -9t-95 -7t-53 -3h-18h-20q-48 2 -112 5t-134 6t-144 6t-142 7q-162 8 -336 14z" />
<glyph unicode="`" horiz-adv-x="638" d="M144 1694l38 152l414 -302q2 0 3 -7t1 -11q0 -34 -29 -58t-49 -38q-30 24 -79 65t-104 82t-108 74t-87 43z" />
<glyph unicode="a" horiz-adv-x="1044" d="M52 526q-1 11 -1 25q0 34 7 84q10 69 32 148t56 161t80 149t101 108t121 41q21 2 40 2q103 0 171 -53q81 -63 133 -173l10 -646q0 -44 28 -75t68 -51t87 -29t85 -9l4 -146q-80 0 -131 12t-92 40t-78 72t-91 108q-24 -44 -59 -96t-80 -96t-96 -74t-107 -30q-94 0 -151 57 t-87 139t-40 173t-10 159zM198 510q0 -34 6 -94t23 -120t48 -104t83 -44q8 -1 16 -1q48 0 82 32q40 37 72 109t62 174t66 228q22 105 22 182q0 43 -7 76q-19 94 -68 127q-28 19 -62 19q-26 0 -55 -11q-68 -25 -130 -100t-108 -195t-50 -278z" />
<glyph unicode="b" horiz-adv-x="1026" d="M56 1698q10 30 33 36t47 6t37 -6t19 -19t8 -36t6 -57q2 -18 7 -59t10 -95t11 -113t11 -112t8 -95t3 -60q152 88 270 91h12q110 0 190 -52q84 -55 135 -157t69 -223q10 -66 10 -134q0 -56 -7 -114q-15 -127 -62 -234t-127 -181t-192 -88q-12 0 -41 -2t-66 -4t-77 -3h-16 q-31 0 -57 3q-33 4 -56 12t-25 24zM278 820q0 -82 8 -170t20 -175t26 -170t26 -155h29t45 -1t46 -1h30q88 2 149 62t94 150t37 197q1 15 1 29q0 91 -22 175q-25 97 -79 170t-136 95q-56 0 -106 -10t-87 -33t-59 -63t-22 -100z" />
<glyph unicode="c" horiz-adv-x="792" d="M54 696q0 46 4 107t16 127t33 130t54 114t79 81t110 31q60 0 113 -22t92 -62t62 -94t23 -116q-56 0 -88 22t-58 49t-51 49t-65 22q-48 0 -79 -24t-50 -63t-29 -88t-13 -98t-3 -93v-72q0 -44 5 -102t19 -119t36 -119t56 -104t81 -74t109 -28q32 0 56 13t47 30t48 30t57 13 q0 -48 -25 -92t-63 -76t-86 -51t-92 -19q-70 0 -127 38t-101 98t-76 136t-53 154t-31 149t-10 123z" />
<glyph unicode="d" horiz-adv-x="924" d="M36 584q0 78 19 180t62 195t111 157t166 64q36 0 65 1t54 -5t49 -26t50 -62q10 72 15 138t11 131t15 130t27 135q14 0 37 3q14 2 27 2q9 0 18 -1q22 -2 40 -10t26 -28q-14 -32 -22 -112t-12 -190t-4 -239t2 -260t7 -254t10 -220t11 -157t10 -66q0 -34 -25 -45t-53 -11 q-46 0 -64 24q-12 15 -12 49q0 19 4 43q-20 -26 -51 -52t-67 -48t-74 -36t-72 -14q-102 0 -175 61t-118 151t-66 191t-21 181zM186 596q0 -54 5 -131t28 -147t69 -119t128 -49q9 -1 18 -1q90 0 145 56q61 61 87 158q21 79 21 169q0 21 -1 42q-6 114 -38 213t-86 165t-126 68 q-76 0 -124 -47t-76 -113t-39 -139t-11 -125z" />
<glyph unicode="e" horiz-adv-x="978" d="M-42 912q0 34 25 48t53 14q4 0 19 -2t19 -2q34 -136 61 -190t49 -64t40 8t36 30q26 106 52 191t71 144t116 91t189 32q92 0 155 -42t63 -142q0 -110 -43 -186t-114 -129t-159 -87t-178 -60q0 -10 -1 -38t-1 -38q12 -142 56 -219t103 -110t126 -33t124 13t95 26t40 5 q6 -14 6 -30q0 -13 -4 -26q-8 -30 -41 -56t-97 -43t-164 -19q-86 0 -147 26t-102 71t-66 104t-41 125t-28 133t-24 129q-37 -28 -69 -28q-18 0 -36 9q-47 25 -82 83t-60 132t-41 130zM410 772q0 -16 7 -36t31 -20q48 0 102 23t99 59t75 83t30 95q0 50 -10 85t-66 35 q-70 0 -120 -26t-83 -71t-49 -104t-16 -123z" />
<glyph unicode="f" horiz-adv-x="862" d="M34 734q0 6 5 25t12 39t14 36t11 16l226 18q8 74 23 161t40 174t65 167t98 140q30 34 58 36h5q25 0 47 -17q24 -19 44 -53t35 -70t25 -70t12 -52q0 -24 -20 -32t-36 -8q-22 2 -36 16t-27 29t-28 26t-41 5q-18 -54 -36 -110t-29 -113t-11 -113t16 -112q116 0 229 21 t231 21q0 -42 -29 -70t-75 -45t-102 -27t-109 -16t-98 -10t-69 -12q-10 -82 -10 -163t5 -162t9 -162t4 -163q0 -28 -37 -47q-20 -10 -48 -10q-24 0 -53 7q-12 80 -12 168v178t-5 180t-27 174q-4 0 -47 -9t-94 -16q-36 -5 -67 -5q-13 0 -26 1q-42 3 -42 29z" />
<glyph unicode="g" horiz-adv-x="786" d="M38 472q0 32 6 99t21 149t40 169t62 158t89 117t122 46q46 7 82 7q29 0 52 -5q50 -10 84 -32t62 -51t66 -59q4 -20 14 -123t18 -253t10 -329v-51q0 -152 -10 -299q-12 -171 -40 -316t-82 -228t-135 -85h-3q-80 0 -194 114q6 12 17 33t25 41t28 35t24 15q56 -76 96 -81 q5 -1 9 -1q34 0 56 34q25 38 37 107t12 145t-11 144t-29 104q-30 -10 -53 -28l-46 -36t-47 -30t-58 -8q-100 0 -163 45t-99 116t-49 160t-13 177zM186 468q0 -44 3 -99t18 -104t49 -83t98 -34q34 0 78 15t82 40t64 60t26 77v592q-88 112 -154 127q-17 4 -32 4q-46 0 -81 -33 q-47 -44 -77 -129t-47 -174t-23 -163q-4 -56 -4 -82v-14z" />
<glyph unicode="h" horiz-adv-x="992" d="M60 44l16 1578q0 22 16 30q13 6 28 6h8q20 -2 38 -12t24 -24l-8 -646q14 20 68 51t128 52t159 24q7 0 13 1q78 0 148 -34q70 -36 113 -106t67 -157t33 -183t9 -186t-5 -166t-9 -122l76 -74q-8 -34 -41 -53t-70 -21h-7q-33 0 -64 16q-34 18 -44 58q2 32 2 112v170v171 t-2 113q-18 150 -71 218t-130 79q-19 3 -39 3q-61 0 -130 -26q-92 -34 -188 -88l4 -776q-12 -16 -28 -31t-35 -19q-6 -1 -13 -1q-13 0 -26 5q-20 8 -40 38z" />
<glyph unicode="i" horiz-adv-x="302" d="M38 906v5q0 16 11 24q13 9 32 11t39 0t32 -2q30 -104 52 -219t36 -232t21 -232t7 -223h-154zM56 1360q0 30 1 60t9 54t26 39t54 15q42 0 60 -20t18 -58q0 -30 -21 -48t-49 -27t-56 -12t-42 -3z" />
<glyph unicode="j" horiz-adv-x="380" d="M-94 -396q63 -9 109 -9q15 0 29 1q54 4 85 31t40 79q5 31 5 74q0 28 -2 62q0 138 -18 273t-40 270t-40 269t-18 270q0 6 2 19t12 25t34 17q9 2 21 2q19 0 45 -5q50 -140 79 -291t44 -305t20 -309t9 -305q0 -72 -6 -129t-28 -95t-69 -58t-127 -20q-34 0 -66 5t-58 19 t-43 40t-19 70zM-42 1484q24 48 48 63t64 15q56 -20 77 -48q18 -24 18 -47q0 -5 -1 -9q-4 -28 -27 -48t-54 -23h-7q-28 0 -58 19q-34 22 -60 78z" />
<glyph unicode="k" horiz-adv-x="992" d="M76 1423q6 35 23 60t44 29h5q25 0 50 -40q18 -170 32 -287t24 -194t17 -118t11 -61t5 -23t3 -3q44 48 70 76t48 50t47 48t68 70t109 112t172 178l42 -130l-500 -578q10 -40 51 -82t99 -81t126 -76t133 -67t119 -55t84 -39q72 -2 96 -22q19 -16 19 -35q0 -5 -1 -10 q-6 -25 -35 -47t-61 -28q-88 0 -192 37t-203 95t-184 132t-137 150q2 -12 11 -75t13 -140q1 -26 1 -51q0 -50 -5 -98q-8 -72 -38 -102q-28 -28 -50 -28q-11 0 -20 7q-28 21 -50 81q3 83 3 164.5t-3 162.5q-6 161 -14 321l-16 320t-8 324q-10 13 -10 34q0 9 2 19z" />
<glyph unicode="l" horiz-adv-x="378" d="M72 1438q2 28 11 50t31 22q8 0 20 -4t24 -10t21 -13t9 -11q36 -328 57 -564t32 -398t13 -259q1 -39 1 -70q0 -47 -2 -79q-3 -52 -9 -69q-5 -15 -11 -15h-1q-4 0 -22 1t-39 4t-38 7t-17 8q5 80 5 160q0 88 -6 174q-11 166 -28 331t-33 331t-16 334q-3 25 -3 48q0 11 1 22z " />
<glyph unicode="m" horiz-adv-x="1622" d="M64 1144q57 26 89 26q11 0 19 -3q30 -13 41 -57t17 -109t34 -133q44 32 88 76t91 84t99 67t114 27q23 6 43.5 6t37.5 -6q35 -12 62 -35t46 -52t35 -51q8 32 39 75t80 76t112 48q24 6 50 6q41 0 85 -15q30 0 61 -12t58 -33t46 -50t23 -61q4 -30 9 -104t11 -170t12 -204 t11 -205t10 -171t7 -104q0 -8 -26 -8t-58 3t-59 3t-27 -8q-24 88 -30 184q-4 58 -4 115q0 38 2 76q4 95 11 185t7 164t-12 129t-46 81q-40 0 -98 -13t-111 -37t-91 -60t-38 -80q0 -82 8 -168t18 -168t18 -156t8 -130t-35 -71t-87 -15q-26 0 -45 52t-31 134t-20 181t-12 193 t-5 171t-1 115q-88 0 -166 -34t-137 -93t-93 -138t-34 -169q0 -50 -2 -107t-2 -116t5 -118t19 -113q-8 -24 -26 -42t-40 -25q-11 -4 -22.5 -3.5t-22.5 3.5q-23 7 -41 31q-6 30 -13 103t-17 167t-19 198t-18 197t-16 166t-9 105q-2 10 -4 39t-4 61t-3 61t-1 39z" />
<glyph unicode="n" horiz-adv-x="1056" d="M56 1056q-2 22 16 31t44 12q13 2 25.5 1.5t25.5 -1.5q25 -3 39 -5q6 -20 14 -53t15 -70t10 -74q1 -16 1 -30q0 -19 -2 -37q38 32 86 72t102 74t112 58t116 24q66 0 112 -34t78 -86t49 -112t25 -110q2 -10 7 -49t12 -94t15 -121t16 -130t15 -119t11 -89v-22q0 -34 -24 -45 t-52 -11q-24 0 -45 4t-31 36q-2 24 -7 74t-12 113t-16 133t-16 133t-14 113t-11 74q-4 28 -14 62t-28 63t-44 49t-62 20q-58 0 -116 -40t-110 -92t-93 -102t-61 -72q0 -118 18 -236t22 -244q0 -20 -1 -39t-8 -36t-23 -29t-46 -20q-4 -1 -8 -1q-15 0 -36 11q-28 14 -30 28z " />
<glyph unicode="o" horiz-adv-x="830" d="M47 469q1 81 16 173t44 184t75 163t109 110q48 30 107 30q18 0 38 -3q122 0 197 -37t116 -101t55 -151t14 -187q6 -41 6 -87q0 -27 -2 -56q-6 -77 -27 -152t-57 -142t-89 -118t-121 -78q-52 -21 -114 -21q-18 0 -38 2q-164 0 -243 91t-79 249q-7 44 -7 113v18zM200 487 q-1 -18 -1 -32q0 -28 5 -43q0 -52 2 -99t17 -84t48 -59t93 -22q80 0 143 56t107 135t68 165t24 146q0 98 -23 166t-57 110t-75 61t-77 23q-46 0 -87 -39t-74 -98t-57 -130t-38 -137t-18 -119z" />
<glyph unicode="p" horiz-adv-x="828" d="M-22 906q44 44 89 69t83 38t67 16t45 3q100 0 192 -14t163 -54t114 -111t43 -183q-12 -144 -61 -262t-116 -207t-146 -149t-153 -88v-642q0 -10 -21 -24t-35 -14q-30 0 -51 15t-35 37t-21 48t-7 50v1434q-10 -22 -23 -30t-33 -8q-34 0 -54 24t-40 52zM268 898l50 -708 q68 18 124 69t96 118t63 140t23 137q0 68 -30 115t-80 75t-114 41t-132 13z" />
<glyph unicode="q" horiz-adv-x="924" d="M72 406q0 108 39 219t109 203t168 150t216 58q8 1 16 1q57 0 97 -53q45 -60 72 -165t40 -243t16 -285q1 -73 1 -146.5t-1 -146.5q-3 -146 -7 -266t-8 -202q-2 -41 -2 -67t2 -37q2 -40 -18 -55q-16 -12 -36 -12q-5 0 -11 1q-27 4 -52 24t-33 50q5 96 5 190q0 86 -4 170 q-9 178 -39 356q-52 -68 -121 -100t-151 -32q-96 0 -155 27t-91 78t-42 123t-10 160zM208 414q-2 -33 -2 -62q0 -90 23 -141q31 -67 84 -82q18 -5 37 -5q37 0 80 20q64 30 120 85t94 127t38 144q7 63 7 115q0 100 -25 162q-38 95 -154 95q-52 0 -106 -53t-98 -127t-71 -152 t-27 -126z" />
<glyph unicode="r" horiz-adv-x="760" d="M72 918q0 34 25 47t53 13q20 0 34 -9t25 -21t22 -26t29 -24q30 34 79 55t106 30q51 8 105 8h12q60 -1 111 -12t87 -31t48 -46q-24 -54 -49 -67t-57 -9t-76 13q-19 4 -41 4q-30 0 -67 -7q-76 -20 -127 -71t-81 -121t-46 -153t-22 -166t-9 -158t-7 -129q-14 0 -34 -7 t-40 -12q-14 -4 -27 -4q-5 0 -9 1q-16 2 -22 22q4 102 7 213q2 67 2 134q0 45 -1 91q-2 114 -9 226t-21 216z" />
<glyph unicode="s" horiz-adv-x="680" d="M38 264q38 68 58 83t31 1t18 -50t23 -71t45 -61q24 -21 62 -21q9 0 19 1q36 10 65 35t29 51q0 64 -31 127t-69 126t-69 125t-31 126q0 46 19 115t54 132t83 108t106 45q90 -18 152 -46t92 -59q26 -27 26 -55v-7q-4 -31 -46 -55q-74 24 -135 37q-28 6 -53 6q-29 0 -53 -8 q-45 -15 -70 -64t-25 -151q0 -66 35 -129t76 -125t76 -126t35 -130q0 -54 -31 -96t-80 -71t-109 -44t-116 -15q-44 0 -81 26t-63 65t-37 86q-7 30 -7 59q0 15 2 30z" />
<glyph unicode="t" horiz-adv-x="1094" d="M34 792q0 48 25 63t69 15t91 -12q43 -11 79 -11h6q38 1 59 28q16 21 16 74q0 15 -1 33q2 18 2 56v86v102v102t-1 87t-1 57q6 18 23 29t37 15t40 5t32 1v-686q60 0 117 11t113 25t111 25t113 11q32 0 63 -8t31 -50q0 -36 -34 -63t-86 -45t-116 -29t-125 -17t-112 -8 t-75 -2v-648q-4 -22 -27 -31q-15 -6 -32 -6q-10 0 -20 2q-29 5 -56 23t-35 50q0 216 -4 336t-10 179t-13 73t-11 16q-16 6 -53 17t-79 23t-80 22t-52 12q0 4 -2 19t-2 19z" />
<glyph unicode="u" horiz-adv-x="1000" d="M59 718q-2 39 -2 77q0 68 6 131q9 98 31 168q4 0 19 2t19 2q24 0 44 -5t30 -37q-8 -102 -10 -185q0 -17 -1 -33q0 -66 7 -128q8 -78 27 -158t53 -174q30 -98 70 -138q36 -36 78 -36h8q46 4 93 44t90 101t78 135t57 147t28 136q2 16 2 30q0 43 -14 71q0 4 -6 21t-12 36 t-12 36t-6 21q0 22 20 30t36 8q80 -34 108 -120q19 -59 20 -129q0 -33 -5 -68q-13 -111 -60 -231t-113 -223t-147 -172t-161 -77q-96 34 -164 109t-113 173t-69 212t-29 224z" />
<glyph unicode="v" horiz-adv-x="1018" d="M54 950q12 0 32 -2t41 -7t38 -14t23 -21l294 -626l310 702q4 6 14 18t22 24t23 21t17 11q14 3 25 3q9 0 16 -2q15 -5 24 -17t12 -27t3 -29q0 -2 -2 -10t-13 -37t-34 -88t-65 -163t-108 -262t-160 -386q-4 -10 -18 -24t-20 -14q-48 0 -101 62t-106 159t-101 212t-85 220 t-59 187t-22 110z" />
<glyph unicode="w" horiz-adv-x="1660" d="M56 1018l38 76q34 -2 59 -23t43 -51t30 -62t18 -52q8 -22 23 -69t34 -107t40 -125t39 -125t33 -108t21 -70q12 24 36 74t54 113t63 133t63 133t53 114t33 75q14 34 18 68t13 61t31 44t70 17q30 0 47 -22t26 -52t13 -63t8 -53q6 -32 21 -113t33 -171t35 -170t23 -112 q112 166 200 326t140 352q6 0 28 1t30 1q40 0 69 -5t63 -35l-492 -868q-12 -22 -23 -30t-33 -8q-42 0 -70 43t-47 107t-32 140t-26 143t-30 115t-41 56l-38 -36l-300 -642q-4 -10 -19 -24t-19 -14q-28 0 -53 14t-41 36t-22 49t2 51z" />
<glyph unicode="x" horiz-adv-x="962" d="M92 1018q0 28 12 53t46 25q40 0 70 -28t55 -70t47 -92t47 -92t54 -70t69 -28q38 0 68 25t55 63t48 82t45 82t47 63t55 25q44 0 63 -19t19 -48t-13 -62t-31 -59q-12 -18 -44 -61t-68 -91t-68 -91t-46 -59q0 -72 34 -127t76 -108t79 -110t43 -131q-32 -50 -56 -56t-48 16 t-50 65t-58 91t-73 95t-97 77q-24 -28 -59 -87t-75 -120t-80 -111t-70 -62q-24 0 -36 12t-17 29t-5 37t2 38q18 36 51 95t68 121t66 115t43 81q0 60 -37 121t-84 122t-90 123t-57 126z" />
<glyph unicode="y" horiz-adv-x="1148" d="M14 1078q0 32 8 63t50 31q22 0 33 -9t23 -31l530 -830l338 792q10 22 24 31t34 9q26 -2 40 -18t19 -40q4 -20 4 -41v-8q-1 -25 -7 -45l-566 -1472q-4 -10 -18 -24t-20 -14t-23 4t-35 10t-33 13t-21 11q36 138 84 269t106 277q-54 118 -123 226t-144 226t-153 255 t-150 315z" />
<glyph unicode="z" d="M56 114l716 868h-452q-46 0 -64 23t-19 51t13 51t32 25h642q62 -10 76 -44q7 -16 7 -34q0 -19 -8 -40q-15 -40 -48 -81t-65 -65q-184 -166 -334 -344t-294 -386q60 0 138 9t160 20t162 21t144 10h49t41 -7t28 -23t10 -48q0 -20 -10 -40t-27 -36t-38 -26t-43 -10 q-77 19 -160 19h-22q-94 -3 -187 -14t-183 -19q-36 -3 -70 -3q-52 0 -100 7q-52 0 -81 32q-19 21 -19 50q0 16 6 34z" />
<glyph unicode="{" horiz-adv-x="836" d="M113 1126q-25 98 6 207t98 207t160 170t189 96q10 -22 26 -38t32 -30t31 -26t25 -26q-84 -26 -157 -65t-126 -98t-82 -143t-25 -200q0 -58 32 -94t79 -58t103 -36t103 -25t79 -25t32 -38l-19 -20t-41 -49t-40 -62t-16 -60t32 -42t104 -7q-70 -106 -123 -181t-89 -149 t-55 -161t-19 -219q6 -72 35 -110t66 -58t72 -28t55 -20t14 -36t-50 -72q-134 4 -214 54t-115 127t-32 176t33 202t83 203t117 182q-6 18 -28 27t-45 18t-42 21t-18 38t29 69t96 113q-182 24 -276 96t-119 170z" />
<glyph unicode="|" horiz-adv-x="450" d="M114 1760q2 48 19 82t39 41t44 -21t38 -102q24 -180 33 -320t10 -264t-4 -246t-9 -266t-3 -322t13 -416h-32t-39 5t-36 15t-23 30q-12 188 -17 334t-6 263t1 210t3 177t2 166t-2 175t-10 205t-21 254z" />
<glyph unicode="}" horiz-adv-x="1048" d="M206 1658l96 132q80 -64 165 -151t150 -183t102 -191t23 -175t-89 -135t-231 -71q58 -70 82 -113t25 -68t-15 -37t-36 -21t-38 -18t-24 -27q54 -82 101 -183t75 -206t32 -206t-25 -181t-97 -131t-184 -55q-56 50 -66 77t9 41t56 24t74 29t65 53t28 98q0 130 -18 221 t-52 169t-82 156t-108 184q62 -8 88 7t28 42t-13 59t-34 61t-36 49l-17 20q0 24 27 37t69 25t89 25t89 36t69 59t27 92q0 104 -39 164t-98 102t-130 82t-137 108z" />
<glyph unicode="~" horiz-adv-x="984" d="M38 1230q16 44 32 101t38 108t56 87t86 36q12 6 43 8t82 -18t123 -70t166 -144q62 8 79 44t18 81t0 91t25 76l30 -5t37 -8t35 -14t22 -23q4 -70 -1 -147t-28 -140t-70 -101t-129 -28q-84 42 -135 81t-89 69t-76 48t-94 18q-54 -22 -75 -47t-26 -49t-2 -44t-3 -32 q-8 0 -29 1t-44 4t-43 7t-28 10z" />
<glyph unicode="&#xa1;" horiz-adv-x="424" d="M94 1225q0 -14 10.5 -27.5t25.5 -25.5t31 -21t27 -14q15 9 30 26.5t22 35t5 33t-17 22t-48 1t-86 -29.5zM154 957q2 -138 7 -273.5t10.5 -279.5t10 -301.5t6.5 -342.5q15 -34 37 -48.5t42.5 -13.5t36.5 11t22 24q-10 141 -8 293t1 308t-10.5 311.5t-43.5 303.5 q-5 29 -21 43t-35 15t-35 -11.5t-20 -38.5z" />
<glyph unicode="&#xa2;" horiz-adv-x="776" d="M54 696q0 62 8 153t34 179t73 158t123 92q-4 32 -4 54t-1 43t-2 47t-3 68v24q0 34 26 45t54 11q48 0 56 -25t14 -93q4 -38 5 -60t2 -39t2 -35t5 -48q86 -30 140 -104t54 -174q-34 0 -60 9t-45 23t-35 30t-30 32q18 -130 34 -237t29 -212t22 -218t15 -253q36 18 69 44 t79 26q84 -42 46 -100t-188 -116q0 -50 1 -104t1 -114q-4 -54 -22 -82t-40 -28t-43 27t-33 83q-4 32 -6 50t-5 32t-5 29t-4 43h-10q-70 0 -124 41t-94 106t-66 147t-42 164t-23 156t-7 126zM204 696q0 -56 9 -132t31 -151t60 -139t98 -96q-12 142 -24 257t-24 223t-24 217 t-24 239q-42 -26 -64 -81t-30 -118t-8 -123v-96z" />
<glyph unicode="&#xa3;" horiz-adv-x="1908" d="M76 870q14 42 59 58t99 18t108 -3t88 -5q0 20 -1 61t-3 94t-4 112t-4 112t-3 95t1 62q4 60 28 121t65 110t94 80t115 31q70 -18 138 -64t124 -110t92 -140t42 -154q-48 0 -84 23t-65 59t-54 76t-50 76t-55 59t-68 23q-34 0 -65 -18t-55 -46t-38 -61t-14 -65v-528h464 q0 -50 -26 -80t-67 -46t-92 -21t-103 -5t-98 3t-78 3l-58 -422q156 4 270 -21t198 -61t144 -74t111 -62t97 -25t103 39t130 129t175 245q0 2 7 3t9 1q24 0 42 -11t32 -29t21 -39t7 -41q0 -8 -1 -21t-3 -15l-378 -378q-110 -42 -215 -25t-209 60t-209 94t-217 79 q-52 18 -84 -7t-48 -67t-19 -87t1 -65q-4 0 -19 -2t-19 -2q-10 0 -23 1t-25 5t-20 12t-8 24l60 626q0 52 -16 80t-43 41t-61 18t-72 10t-77 17t-73 40z" />
<glyph unicode="&#xa5;" horiz-adv-x="1200" d="M30 1622q6 20 19 29t28 11t33 1t34 -3q48 -104 101 -186t115 -158t135 -153t161 -171q84 208 146 339t104 206t68 104t41 35t21 -2t8 -8q84 0 84 -82q0 -2 -29 -59t-73 -140t-95 -181t-95 -181t-73 -139l-29 -56l-2 -86q52 4 94 7t64 5h22q34 0 46 -25t12 -53 q0 -24 -11 -38t-28 -21t-38 -9t-41 -4q-16 -2 -49 -4t-73 -6l-2 -224q62 0 119 1t99 9q30 -10 36 -32t6 -46q0 -20 -21 -35t-57 -25t-84 -16t-100 -8l-2 -284q0 -2 -6 -3t-10 -1q-24 0 -48 3t-43 10t-30 21t-9 36q4 16 3 75t-3 139q-84 0 -152 2t-90 2q-26 44 -16 72t45 45 t89 24t118 9q-2 56 -3 110t-5 106q-78 -6 -145 -11t-95 -7q-30 14 -36 37t3 45t29 41t42 27q22 2 76 6t118 8q-2 28 -3 50t-1 32q-90 116 -162 206t-135 179t-117 189t-108 236z" />
<glyph unicode="&#xa7;" horiz-adv-x="1706" />
<glyph unicode="&#xa8;" horiz-adv-x="812" d="M216 1536q14 0 42 1t56 -5t49 -21t21 -45q0 -14 -3 -31t-9 -32t-17 -25t-29 -10q-30 0 -50 18t-34 44t-20 55t-6 51zM500 1536q14 0 42 1t56 -5t49 -21t21 -45q0 -14 -3 -31t-9 -32t-17 -25t-29 -10q-30 0 -50 18t-34 44t-20 55t-6 51z" />
<glyph unicode="&#xad;" horiz-adv-x="1208" d="M56 804q0 18 11 26t26 11t29 3h22q134 -14 217 -20t139 -8t99 -2t97 -4t130 -16t200 -34q32 -6 58 -12t46 -18t31 -34t11 -58q-154 18 -280 31t-249 22t-254 17t-295 20q-4 2 -11 13t-13 23t-10 23t-4 17z" />
<glyph unicode="&#xaf;" horiz-adv-x="1164" d="M166 1567q-6 23 3 45t29 41t42 27q20 2 61 5t93 6t109 8t110 8t94 6t61 5h22q34 0 46 -25t12 -53q0 -24 -11 -38t-28 -21t-38 -9t-41 -4t-61 -5t-94 -6t-110 -8t-109 -8t-93 -6t-61 -5q-30 14 -36 37z" />
<glyph unicode="&#xb4;" horiz-adv-x="638" d="M82 1518q0 4 1 11t3 7l460 302l42 -152q-38 -10 -96 -43t-119 -74t-117 -82t-88 -65q-10 6 -25 16t-29 22t-23 27t-9 31z" />
<glyph unicode="&#xb7;" horiz-adv-x="328" d="M82 618q-2 26 8 48q14 34 45 52t63 14t55 -32t23 -88q0 -14 -3 -32t-10 -33t-18 -26t-29 -11q-44 2 -73 18t-44 40t-17 50z" />
<glyph unicode="&#xb8;" horiz-adv-x="680" d="M126 -298q38 48 57 59t29 1t18 -36t23 -51t43 -43t80 -14q36 8 65 26t29 36q0 46 -38 77t-83 59t-82 58t-37 76q0 108 18 154t42 52t50 -20t42 -61t17 -72t-23 -53q0 -48 41 -79t90 -59t90 -59t41 -79q0 -38 -30 -68t-78 -50t-107 -31t-115 -11q-44 0 -80 18t-61 46 t-36 61t-5 63z" />
<glyph unicode="&#xbf;" horiz-adv-x="1018" d="M106.5 -127.5q-4.5 63.5 34.5 152.5q45 98 118.5 172.5t147.5 127.5t134 84t79 41q36 0 50 -12t21 -49q-163 -88 -268 -188t-152 -187.5t-37 -149t76 -73t188 41.5t299 192h92q-29 -70 -84 -128t-125.5 -99.5t-148.5 -65.5t-150.5 -28.5t-134.5 11.5t-98.5 55t-41 102.5z M539 961q-5 14 12.5 37t42 33t49 -4.5t33.5 -75.5q-2 -31 -21.5 -43.5t-44 -10t-46 18.5t-25.5 45z" />
<glyph unicode="&#xc0;" horiz-adv-x="966" d="M40 -34q6 14 18 54t27 94t31 115t30 115t25 94t17 52t12 30l12 36t10 32t4 16t-12 8t-25 11t-25 10t-12 9q-2 2 -3 14t-1 20q0 32 14 52t36 33t49 20t55 11q64 234 115 473t111 471q12 20 28 41t37 39t44 30t51 12q6 0 18 -3t12 -5l112 -982q8 6 29 13t45 13t46 10t32 2 q6 -2 18 -11t24 -21t22 -24t10 -20q-16 -24 -44 -42t-59 -32t-64 -23t-59 -17q36 -176 43 -369t7 -369q-58 0 -92 39t-52 100t-24 139t-9 156t-7 149t-16 119q-16 0 -53 -5t-79 -11t-80 -13t-52 -9q-2 0 -6 -6t-13 -27t-25 -63t-40 -117t-59 -188t-83 -275h-150zM368 2230 l38 152l414 -302q2 0 3 -7t1 -11q0 -34 -29 -58t-49 -38q-30 24 -79 65t-104 82t-108 74t-87 43zM454 792l226 38v16q-2 26 -8 77t-13 116t-15 137t-16 137t-15 118t-9 79q-40 -170 -78 -341t-72 -357v-20z" />
<glyph unicode="&#xc1;" horiz-adv-x="966" d="M40 -34q6 14 18 54t27 94t31 115t30 115t25 94t17 52t12 30l12 36t10 32t4 16t-12 8t-25 11t-25 10t-12 9q-2 2 -3 14t-1 20q0 32 14 52t36 33t49 20t55 11q64 234 115 473t111 471q12 20 28 41t37 39t44 30t51 12q6 0 18 -3t12 -5l112 -982q8 6 29 13t45 13t46 10t32 2 q6 -2 18 -11t24 -21t22 -24t10 -20q-16 -24 -44 -42t-59 -32t-64 -23t-59 -17q36 -176 43 -369t7 -369q-58 0 -92 39t-52 100t-24 139t-9 156t-7 149t-16 119q-16 0 -53 -5t-79 -11t-80 -13t-52 -9q-2 0 -6 -6t-13 -27t-25 -63t-40 -117t-59 -188t-83 -275h-150zM368 1976 q0 4 1 11t3 7l460 302l42 -152q-38 -10 -96 -43t-119 -74t-117 -82t-88 -65q-10 6 -25 16t-29 22t-23 27t-9 31zM454 792l226 38v16q-2 26 -8 77t-13 116t-15 137t-16 137t-15 118t-9 79q-40 -170 -78 -341t-72 -357v-20z" />
<glyph unicode="&#xc2;" horiz-adv-x="966" d="M40 -34q6 14 18 54t27 94t31 115t30 115t25 94t17 52t12 30l12 36t10 32t4 16t-12 8t-25 11t-25 10t-12 9q-2 2 -3 14t-1 20q0 32 14 52t36 33t49 20t55 11q64 234 115 473t111 471q12 20 28 41t37 39t44 30t51 12q6 0 18 -3t12 -5l112 -982q8 6 29 13t45 13t46 10t32 2 q6 -2 18 -11t24 -21t22 -24t10 -20q-16 -24 -44 -42t-59 -32t-64 -23t-59 -17q36 -176 43 -369t7 -369q-58 0 -92 39t-52 100t-24 139t-9 156t-7 149t-16 119q-16 0 -53 -5t-79 -11t-80 -13t-52 -9q-2 0 -6 -6t-13 -27t-25 -63t-40 -117t-59 -188t-83 -275h-150zM223 2143 q-1 9 1 19q44 80 91 143t88 123t73 125t48 151q18 42 58 42q2 0 -7 11t-11 15t11 -6t57 -53t129 -126t227 -225q28 -72 23 -106t-31 -41t-65 7t-77 42q-20 18 -47 46t-55 59t-55 60t-45 49l-262 -392q-20 -16 -45 -27t-47 -10t-39 17t-19 58q0 10 -1 19zM454 792l226 38v16 q-2 26 -8 77t-13 116t-15 137t-16 137t-15 118t-9 79q-40 -170 -78 -341t-72 -357v-20z" />
<glyph unicode="&#xc3;" horiz-adv-x="966" d="M40 -34q6 14 18 54t27 94t31 115t30 115t25 94t17 52t12 30l12 36t10 32t4 16t-12 8t-25 11t-25 10t-12 9q-2 2 -3 14t-1 20q0 32 14 52t36 33t49 20t55 11q64 234 115 473t111 471q12 20 28 41t37 39t44 30t51 12q6 0 18 -3t12 -5l112 -982q8 6 29 13t45 13t46 10t32 2 q6 -2 18 -11t24 -21t22 -24t10 -20q-16 -24 -44 -42t-59 -32t-64 -23t-59 -17q36 -176 43 -369t7 -369q-58 0 -92 39t-52 100t-24 139t-9 156t-7 149t-16 119q-16 0 -53 -5t-79 -11t-80 -13t-52 -9q-2 0 -6 -6t-13 -27t-25 -63t-40 -117t-59 -188t-83 -275h-150zM162 1964 q16 44 32 101t38 108t56 87t86 36q12 6 43 8t82 -18t123 -70t166 -144q62 8 79 44t18 81t0 91t25 76l30 -5t37 -8t35 -14t22 -23q4 -70 -1 -147t-28 -140t-70 -101t-129 -28q-84 42 -135 81t-89 69t-76 48t-94 18q-54 -22 -75 -47t-26 -49t-2 -44t-3 -32q-8 0 -29 1t-44 4 t-43 7t-28 10zM454 792l226 38v16q-2 26 -8 77t-13 116t-15 137t-16 137t-15 118t-9 79q-40 -170 -78 -341t-72 -357v-20z" />
<glyph unicode="&#xc4;" horiz-adv-x="966" d="M40 -34q6 14 18 54t27 94t31 115t30 115t25 94t17 52t12 30l12 36t10 32t4 16t-12 8t-25 11t-25 10t-12 9q-2 2 -3 14t-1 20q0 32 14 52t36 33t49 20t55 11q64 234 115 473t111 471q12 20 28 41t37 39t44 30t51 12q6 0 18 -3t12 -5l112 -982q8 6 29 13t45 13t46 10t32 2 q6 -2 18 -11t24 -21t22 -24t10 -20q-16 -24 -44 -42t-59 -32t-64 -23t-59 -17q36 -176 43 -369t7 -369q-58 0 -92 39t-52 100t-24 139t-9 156t-7 149t-16 119q-16 0 -53 -5t-79 -11t-80 -13t-52 -9q-2 0 -6 -6t-13 -27t-25 -63t-40 -117t-59 -188t-83 -275h-150zM454 792 l226 38v16q-2 26 -8 77t-13 116t-15 137t-16 137t-15 118t-9 79q-40 -170 -78 -341t-72 -357v-20zM454 2252q14 0 42 1t56 -5t49 -21t21 -45q0 -14 -3 -31t-9 -32t-17 -25t-29 -10q-30 0 -50 18t-34 44t-20 55t-6 51zM738 2252q14 0 42 1t56 -5t49 -21t21 -45q0 -14 -3 -31 t-9 -32t-17 -25t-29 -10q-30 0 -50 18t-34 44t-20 55t-6 51z" />
<glyph unicode="&#xc5;" horiz-adv-x="966" d="M40 -34q6 14 18 54t27 94t31 115t30 115t25 94t17 52t12 30l12 36t10 32t4 16t-12 8t-25 11t-25 10t-12 9q-2 2 -3 14t-1 20q0 32 14 52t36 33t49 20t55 11q64 234 115 473t111 471q12 20 28 41t37 39t44 30t51 12q6 0 18 -3t12 -5l112 -982q8 6 29 13t45 13t46 10t32 2 q6 -2 18 -11t24 -21t22 -24t10 -20q-16 -24 -44 -42t-59 -32t-64 -23t-59 -17q36 -176 43 -369t7 -369q-58 0 -92 39t-52 100t-24 139t-9 156t-7 149t-16 119q-16 0 -53 -5t-79 -11t-80 -13t-52 -9q-2 0 -6 -6t-13 -27t-25 -63t-40 -117t-59 -188t-83 -275h-150zM372 2100 q0 68 44 111t110 69q40 16 96 -6t108 -61t91 -87t45 -86q8 -52 -17 -94t-66 -72t-90 -46t-91 -16q-76 0 -121 31t-69 75t-32 94t-8 88zM454 792l226 38v16q-2 26 -8 77t-13 116t-15 137t-16 137t-15 118t-9 79q-40 -170 -78 -341t-72 -357v-20zM483 2054q-5 -42 19 -66 t62 -37t60 -27q18 0 39 2t39 9t31 23t19 44q6 36 -12 67t-50 53t-69 34t-69 12q-64 -72 -69 -114z" />
<glyph unicode="&#xc6;" horiz-adv-x="1778" d="M40 -34q6 14 18 54t27 94t31 115t30 115t25 94t17 52t12 30l12 36t10 32t4 16t-12 8t-25 11t-25 10t-12 9q-2 2 -3 14t-1 20q0 32 14 52t36 33t49 20t55 11q64 234 115 473t111 471q12 20 28 41t37 39t44 30t51 12q6 0 18 -3t12 -5l112 -982q8 6 29 13t45 13t46 10t32 2 q6 -2 18 -11t24 -21t22 -24t10 -20q-16 -24 -44 -42t-59 -32t-64 -23t-59 -17q36 -176 43 -369t7 -369q-58 0 -92 39t-52 100t-24 139t-9 156t-7 149t-16 119q-16 0 -53 -5t-79 -11t-80 -13t-52 -9q-2 0 -6 -6t-13 -27t-25 -63t-40 -117t-59 -188t-83 -275h-150zM454 792 l226 38v16q-2 26 -8 77t-13 116t-15 137t-16 137t-15 118t-9 79q-40 -170 -78 -341t-72 -357v-20zM746 114l20 1372q4 16 67 32t158 29t207 23t214 17t179 11t103 4q20 0 44 -2t43 -9t32 -22t13 -41q0 -40 -38 -61t-102 -30t-145 -9t-167 1t-170 1t-153 -9t-115 -28t-56 -57 q6 -24 3 -65t-8 -89t-7 -100t6 -100q54 -4 125 -3t147 3t151 5t135 5q0 -62 -19 -96t-95 -56q-28 -6 -90 -8t-132 -2t-132 -1t-90 -3q2 -84 4 -177t0 -180t-7 -160t-15 -119q44 4 104 3t128 -4t140 -4t137 1t120 11t91 29q78 0 78 -54q2 -10 -3 -25t-13 -30t-15 -27t-9 -14 l-754 -76q-16 -2 -37 9t-39 29t-30 38t-8 38z" />
<glyph unicode="&#xc7;" horiz-adv-x="1062" d="M34 888q8 122 42 243t86 230t117 199t135 151t140 86t131 3t109 -97t76 -215q-4 0 -19 2t-32 5t-32 7t-19 6q-48 86 -98 112t-99 10t-95 -67t-87 -122t-75 -153t-59 -161t-40 -147t-17 -108q-2 -48 1 -116t14 -145t32 -154t57 -141t88 -110t124 -58q68 0 125 36t109 79 t105 79t115 36q8 0 22 -15t14 -23q-52 -60 -104 -122t-111 -112t-126 -82t-149 -32q-88 0 -157 45t-123 119t-92 168t-62 194t-35 196t-11 174zM284 -298q38 48 57 59t29 1t18 -36t23 -51t43 -43t80 -14q36 8 65 26t29 36q0 46 -38 77t-83 59t-82 58t-37 76q0 108 18 154 t42 52t50 -20t42 -61t17 -72t-23 -53q0 -48 41 -79t90 -59t90 -59t41 -79q0 -38 -30 -68t-78 -50t-107 -31t-115 -11q-44 0 -80 18t-61 46t-36 61t-5 63z" />
<glyph unicode="&#xc8;" horiz-adv-x="1078" d="M56 114l20 1372q4 16 67 32t158 29t207 23t214 17t179 11t103 4q20 0 44 -2t43 -9t32 -22t13 -41q0 -40 -38 -61t-102 -30t-145 -9t-167 1t-170 1t-153 -9t-115 -28t-56 -57q6 -24 3 -65t-8 -89t-7 -100t6 -100q54 -4 125 -3t147 3t151 5t135 5q0 -62 -19 -96t-95 -56 q-28 -6 -90 -8t-132 -2t-132 -1t-90 -3q2 -84 4 -177t0 -180t-7 -160t-15 -119q44 4 104 3t128 -4t140 -4t137 1t120 11t91 29q78 0 78 -54q2 -10 -3 -25t-13 -30t-15 -27t-9 -14l-754 -76q-16 -2 -37 9t-39 29t-30 38t-8 38zM352 2022l38 152l414 -302q2 0 3 -7t1 -11 q0 -34 -29 -58t-49 -38q-30 24 -79 65t-104 82t-108 74t-87 43z" />
<glyph unicode="&#xc9;" horiz-adv-x="1078" d="M56 114l20 1372q4 16 67 32t158 29t207 23t214 17t179 11t103 4q20 0 44 -2t43 -9t32 -22t13 -41q0 -40 -38 -61t-102 -30t-145 -9t-167 1t-170 1t-153 -9t-115 -28t-56 -57q6 -24 3 -65t-8 -89t-7 -100t6 -100q54 -4 125 -3t147 3t151 5t135 5q0 -62 -19 -96t-95 -56 q-28 -6 -90 -8t-132 -2t-132 -1t-90 -3q2 -84 4 -177t0 -180t-7 -160t-15 -119q44 4 104 3t128 -4t140 -4t137 1t120 11t91 29q78 0 78 -54q2 -10 -3 -25t-13 -30t-15 -27t-9 -14l-754 -76q-16 -2 -37 9t-39 29t-30 38t-8 38zM380 1796q0 4 1 11t3 7l460 302l42 -152 q-38 -10 -96 -43t-119 -74t-117 -82t-88 -65q-10 6 -25 16t-29 22t-23 27t-9 31z" />
<glyph unicode="&#xca;" horiz-adv-x="1078" d="M56 114l20 1372q4 16 67 32t158 29t207 23t214 17t179 11t103 4q20 0 44 -2t43 -9t32 -22t13 -41q0 -40 -38 -61t-102 -30t-145 -9t-167 1t-170 1t-153 -9t-115 -28t-56 -57q6 -24 3 -65t-8 -89t-7 -100t6 -100q54 -4 125 -3t147 3t151 5t135 5q0 -62 -19 -96t-95 -56 q-28 -6 -90 -8t-132 -2t-132 -1t-90 -3q2 -84 4 -177t0 -180t-7 -160t-15 -119q44 4 104 3t128 -4t140 -4t137 1t120 11t91 29q78 0 78 -54q2 -10 -3 -25t-13 -30t-15 -27t-9 -14l-754 -76q-16 -2 -37 9t-39 29t-30 38t-8 38zM183 2025q-1 9 1 19q44 80 91 143t88 123 t73 125t48 151q18 42 58 42q2 0 -7 11t-11 15t11 -6t57 -53t129 -126t227 -225q28 -72 23 -106t-31 -41t-65 7t-77 42q-20 18 -47 46t-55 59t-55 60t-45 49l-262 -392q-20 -16 -45 -27t-47 -10t-39 17t-19 58q0 10 -1 19z" />
<glyph unicode="&#xcb;" horiz-adv-x="1078" d="M48 190l20 1372q4 16 67 32t158 29t207 23t214 17t179 11t103 4q20 0 44 -2t43 -9t32 -22t13 -41q0 -40 -38 -61t-102 -30t-145 -9t-167 1t-170 1t-153 -9t-115 -28t-56 -57q6 -24 3 -65t-8 -89t-7 -100t6 -100q54 -4 125 -3t147 3t151 5t135 5q0 -62 -19 -96t-95 -56 q-28 -6 -90 -8t-132 -2t-132 -1t-90 -3q2 -84 4 -177t0 -180t-7 -160t-15 -119q44 4 104 3t128 -4t140 -4t137 1t120 11t91 29q78 0 78 -54q2 -10 -3 -25t-13 -30t-15 -27t-9 -14l-754 -76q-16 -2 -37 9t-39 29t-30 38t-8 38zM309 2964q14 0 41 -1t54.5 6.5t48 27t20.5 58.5 q0 18 -3 39.5t-9 41t-16.5 32.5t-28.5 13q-29 0 -48.5 -23.5t-33 -57t-19.5 -70.5t-6 -66zM586 2964q13 0 40.5 -1t54.5 6.5t47.5 27t20.5 58.5q0 18 -3 39.5t-8.5 41t-16.5 32.5t-28 13q-29 0 -48.5 -23.5t-33.5 -57t-19.5 -70.5t-5.5 -66z" />
<glyph unicode="&#xcc;" horiz-adv-x="1358" d="M76 1320q140 40 269 81t257 74t259 54t277 21q22 0 54 -17t42 -57q-28 -42 -76 -59t-103 -21t-112 -4t-104 -7t-81 -29t-40 -72q-12 -142 -21 -276t-13 -267t-3 -268t7 -275q26 18 76 27t112 10t130 -2t130 -5h40t51 -4t43 -16t18 -36q0 -38 -42 -58q-30 -18 -115 -33 t-194 -29t-229 -24t-222 -18t-173 -13t-81 -5q-60 6 -87 21t-31 34t9 38t30 34t31 22t14 3q0 10 23 12t56 1t72 -2t71 1t53 9t17 23q32 138 48 277t23 281t7 285t-2 289q-66 -18 -124 -33t-115 -26t-118 -16t-131 -3zM458 1970l38 152l414 -302q2 0 3 -7t1 -11 q0 -34 -29 -58t-49 -38q-30 24 -79 65t-104 82t-108 74t-87 43z" />
<glyph unicode="&#xcd;" horiz-adv-x="1358" d="M76 1320q140 40 269 81t257 74t259 54t277 21q22 0 54 -17t42 -57q-28 -42 -76 -59t-103 -21t-112 -4t-104 -7t-81 -29t-40 -72q-12 -142 -21 -276t-13 -267t-3 -268t7 -275q26 18 76 27t112 10t130 -2t130 -5h40t51 -4t43 -16t18 -36q0 -38 -42 -58q-30 -18 -115 -33 t-194 -29t-229 -24t-222 -18t-173 -13t-81 -5q-60 6 -87 21t-31 34t9 38t30 34t31 22t14 3q0 10 23 12t56 1t72 -2t71 1t53 9t17 23q32 138 48 277t23 281t7 285t-2 289q-66 -18 -124 -33t-115 -26t-118 -16t-131 -3zM514 1830q0 4 1 11t3 7l460 302l42 -152 q-38 -10 -96 -43t-119 -74t-117 -82t-88 -65q-10 6 -25 16t-29 22t-23 27t-9 31z" />
<glyph unicode="&#xce;" horiz-adv-x="1358" d="M76 1320q140 40 269 81t257 74t259 54t277 21q22 0 54 -17t42 -57q-28 -42 -76 -59t-103 -21t-112 -4t-104 -7t-81 -29t-40 -72q-12 -142 -21 -276t-13 -267t-3 -268t7 -275q26 18 76 27t112 10t130 -2t130 -5h40t51 -4t43 -16t18 -36q0 -38 -42 -58q-30 -18 -115 -33 t-194 -29t-229 -24t-222 -18t-173 -13t-81 -5q-60 6 -87 21t-31 34t9 38t30 34t31 22t14 3q0 10 23 12t56 1t72 -2t71 1t53 9t17 23q32 138 48 277t23 281t7 285t-2 289q-66 -18 -124 -33t-115 -26t-118 -16t-131 -3zM213 1783q-1 9 1 19q44 80 91 143t88 123t73 125t48 151 q18 42 58 42q2 0 -7 11t-11 15t11 -6t57 -53t129 -126t227 -225q28 -72 23 -106t-31 -41t-65 7t-77 42q-20 18 -47 46t-55 59t-55 60t-45 49l-262 -392q-20 -16 -45 -27t-47 -10t-39 17t-19 58q0 10 -1 19z" />
<glyph unicode="&#xcf;" horiz-adv-x="1358" d="M76 1320q140 40 269 81t257 74t259 54t277 21q22 0 54 -17t42 -57q-28 -42 -76 -59t-103 -21t-112 -4t-104 -7t-81 -29t-40 -72q-12 -142 -21 -276t-13 -267t-3 -268t7 -275q26 18 76 27t112 10t130 -2t130 -5h40t51 -4t43 -16t18 -36q0 -38 -42 -58q-30 -18 -115 -33 t-194 -29t-229 -24t-222 -18t-173 -13t-81 -5q-60 6 -87 21t-31 34t9 38t30 34t31 22t14 3q0 10 23 12t56 1t72 -2t71 1t53 9t17 23q32 138 48 277t23 281t7 285t-2 289q-66 -18 -124 -33t-115 -26t-118 -16t-131 -3zM392 1994q14 0 42 1t56 -5t49 -21t21 -45q0 -14 -3 -31 t-9 -32t-17 -25t-29 -10q-30 0 -50 18t-34 44t-20 55t-6 51zM676 1994q14 0 42 1t56 -5t49 -21t21 -45q0 -14 -3 -31t-9 -32t-17 -25t-29 -10q-30 0 -50 18t-34 44t-20 55t-6 51z" />
<glyph unicode="&#xd0;" horiz-adv-x="1284" d="M-286 892q0 18 11 26t26 11t29 3h22q104 -12 173 -17t121 -9l-12 542q-8 12 -10 33t-1 44t3 44t2 35q0 34 27 50t68 20t89 -1t92 -12t77 -14t43 -7q156 0 291 -67t234 -181t156 -265t57 -319q-8 -104 -60 -214t-135 -210t-190 -183t-227 -134t-244 -62t-242 33l-16 754 q-78 6 -163 11t-183 13q-4 2 -11 13t-13 23t-10 23t-4 17zM232 1502l14 -600q36 0 73 -2t86 -8t116 -16t163 -28q32 -6 58 -12t46 -18t31 -34t11 -58q-170 22 -307 34t-275 22l16 -632h38q72 0 159 27t175 74t170 111t146 138t103 153t39 159q0 48 -17 125t-56 162t-104 167 t-160 142t-225 89t-300 5z" />
<glyph unicode="&#xd1;" horiz-adv-x="1264" d="M69 1169q1 95 9 146t25 68t49 17q24 0 44 -5t30 -37q56 -108 128 -255t158 -302t181 -301t195 -250l132 1184q26 90 47 137t37 62t28 5t20 -33t13 -53l9 -54q0 -20 -2 -43t-7 -73t-15 -137t-27 -234t-42 -366t-61 -531q-4 -46 -42 -63t-72 -17q-56 0 -86 31t-66 85 l-546 868v-980q0 -14 -12 -22t-27 -12t-31 -5t-24 -1q-4 0 -19 1t-19 1q2 312 -1 537t-5 381t-1 251zM138 1686q16 44 32 101t38 108t56 87t86 36q12 6 43 8t82 -18t123 -70t166 -144q62 8 79 44t18 81t0 91t25 76l30 -5t37 -8t35 -14t22 -23q4 -70 -1 -147t-28 -140 t-70 -101t-129 -28q-84 42 -135 81t-89 69t-76 48t-94 18q-54 -22 -75 -47t-26 -49t-2 -44t-3 -32q-8 0 -29 1t-44 4t-43 7t-28 10z" />
<glyph unicode="&#xd2;" d="M52 482q0 66 14 166t42 210t72 221t104 199t137 143t173 55q82 0 144 -37t107 -97t76 -138t49 -160t26 -161t8 -141q0 -132 -46 -265t-131 -239t-205 -173t-266 -67q-88 0 -146 51t-93 126t-50 158t-15 149zM204 480q0 -62 7 -122t30 -106t65 -75t112 -29q62 0 132 30 t132 79t107 110t59 123q0 14 1 49t2 74t1 74v49q0 58 -2 124t-12 131t-31 125t-57 106t-91 73t-133 27q-44 0 -85 -51t-76 -131t-65 -178t-51 -192t-33 -172t-12 -118zM396 1876l38 152l414 -302q2 0 3 -7t1 -11q0 -34 -29 -58t-49 -38q-30 24 -79 65t-104 82t-108 74 t-87 43z" />
<glyph unicode="&#xd3;" d="M52 482q0 66 14 166t42 210t72 221t104 199t137 143t173 55q82 0 144 -37t107 -97t76 -138t49 -160t26 -161t8 -141q0 -132 -46 -265t-131 -239t-205 -173t-266 -67q-88 0 -146 51t-93 126t-50 158t-15 149zM204 480q0 -62 7 -122t30 -106t65 -75t112 -29q62 0 132 30 t132 79t107 110t59 123q0 14 1 49t2 74t1 74v49q0 58 -2 124t-12 131t-31 125t-57 106t-91 73t-133 27q-44 0 -85 -51t-76 -131t-65 -178t-51 -192t-33 -172t-12 -118zM336 1648q0 4 1 11t3 7l460 302l42 -152q-38 -10 -96 -43t-119 -74t-117 -82t-88 -65q-10 6 -25 16 t-29 22t-23 27t-9 31z" />
<glyph unicode="&#xd4;" d="M52 482q0 66 14 166t42 210t72 221t104 199t137 143t173 55q82 0 144 -37t107 -97t76 -138t49 -160t26 -161t8 -141q0 -132 -46 -265t-131 -239t-205 -173t-266 -67q-88 0 -146 51t-93 126t-50 158t-15 149zM121 1515q-1 9 1 19q44 80 91 143t88 123t73 125t48 151 q18 42 58 42q2 0 -7 11t-11 15t11 -6t57 -53t129 -126t227 -225q28 -72 23 -106t-31 -41t-65 7t-77 42q-20 18 -47 46t-55 59t-55 60t-45 49l-262 -392q-20 -16 -45 -27t-47 -10t-39 17t-19 58q0 10 -1 19zM204 480q0 -62 7 -122t30 -106t65 -75t112 -29q62 0 132 30t132 79 t107 110t59 123q0 14 1 49t2 74t1 74v49q0 58 -2 124t-12 131t-31 125t-57 106t-91 73t-133 27q-44 0 -85 -51t-76 -131t-65 -178t-51 -192t-33 -172t-12 -118z" />
<glyph unicode="&#xd5;" d="M52 482q0 66 14 166t42 210t72 221t104 199t137 143t173 55q82 0 144 -37t107 -97t76 -138t49 -160t26 -161t8 -141q0 -132 -46 -265t-131 -239t-205 -173t-266 -67q-88 0 -146 51t-93 126t-50 158t-15 149zM156 1636q16 44 32 101t38 108t56 87t86 36q12 6 43 8t82 -18 t123 -70t166 -144q62 8 79 44t18 81t0 91t25 76l30 -5t37 -8t35 -14t22 -23q4 -70 -1 -147t-28 -140t-70 -101t-129 -28q-84 42 -135 81t-89 69t-76 48t-94 18q-54 -22 -75 -47t-26 -49t-2 -44t-3 -32q-8 0 -29 1t-44 4t-43 7t-28 10zM204 480q0 -62 7 -122t30 -106t65 -75 t112 -29q62 0 132 30t132 79t107 110t59 123q0 14 1 49t2 74t1 74v49q0 58 -2 124t-12 131t-31 125t-57 106t-91 73t-133 27q-44 0 -85 -51t-76 -131t-65 -178t-51 -192t-33 -172t-12 -118z" />
<glyph unicode="&#xd6;" d="M52 482q0 66 14 166t42 210t72 221t104 199t137 143t173 55q82 0 144 -37t107 -97t76 -138t49 -160t26 -161t8 -141q0 -132 -46 -265t-131 -239t-205 -173t-266 -67q-88 0 -146 51t-93 126t-50 158t-15 149zM204 480q0 -62 7 -122t30 -106t65 -75t112 -29q62 0 132 30 t132 79t107 110t59 123q0 14 1 49t2 74t1 74v49q0 58 -2 124t-12 131t-31 125t-57 106t-91 73t-133 27q-44 0 -85 -51t-76 -131t-65 -178t-51 -192t-33 -172t-12 -118zM322 1838q14 0 42 1t56 -5t49 -21t21 -45q0 -14 -3 -31t-9 -32t-17 -25t-29 -10q-30 0 -50 18t-34 44 t-20 55t-6 51zM606 1838q14 0 42 1t56 -5t49 -21t21 -45q0 -14 -3 -31t-9 -32t-17 -25t-29 -10q-30 0 -50 18t-34 44t-20 55t-6 51z" />
<glyph unicode="&#xd8;" d="M-58 -106q0 4 1 11t1 9l974 1684q30 -16 58 -39t24 -61l-942 -1660q0 -2 -13 -4t-19 -2q-30 0 -57 14t-27 48zM52 482q0 66 14 166t42 210t72 221t104 199t137 143t173 55q82 0 144 -37t107 -97t76 -138t49 -160t26 -161t8 -141q0 -132 -46 -265t-131 -239t-205 -173 t-266 -67q-88 0 -146 51t-93 126t-50 158t-15 149zM204 480q0 -62 7 -122t30 -106t65 -75t112 -29q62 0 132 30t132 79t107 110t59 123q0 14 1 49t2 74t1 74v49q0 58 -2 124t-12 131t-31 125t-57 106t-91 73t-133 27q-44 0 -85 -51t-76 -131t-65 -178t-51 -192t-33 -172 t-12 -118z" />
<glyph unicode="&#xd9;" horiz-adv-x="1056" d="M60 952q-2 156 0 303t0 259q6 20 21 22t34 -3t39 -13t36 -10q12 -84 12 -207t-2 -262t0 -282t19 -263t53 -206t103 -114t168 17t249 185q-8 130 -13 288t1 325t26 330t62 301q34 0 66 1t48 -39q-30 -124 -47 -218t-24 -179t-8 -174t-1 -203q0 -104 7 -206t16 -204 t17 -204t8 -206q-38 0 -72 15t-57 42t-32 63t3 78q-160 -136 -277 -175t-198 -6t-130 126t-77 223t-38 285t-12 311zM300 1694l38 152l414 -302q2 0 3 -7t1 -11q0 -34 -29 -58t-49 -38q-30 24 -79 65t-104 82t-108 74t-87 43z" />
<glyph unicode="&#xda;" horiz-adv-x="1056" d="M60 952q-2 156 0 303t0 259q6 20 21 22t34 -3t39 -13t36 -10q12 -84 12 -207t-2 -262t0 -282t19 -263t53 -206t103 -114t168 17t249 185q-8 130 -13 288t1 325t26 330t62 301q34 0 66 1t48 -39q-30 -124 -47 -218t-24 -179t-8 -174t-1 -203q0 -104 7 -206t16 -204 t17 -204t8 -206q-38 0 -72 15t-57 42t-32 63t3 78q-160 -136 -277 -175t-198 -6t-130 126t-77 223t-38 285t-12 311zM360 1872q0 4 1 11t3 7l460 302l42 -152q-38 -10 -96 -43t-119 -74t-117 -82t-88 -65q-10 6 -25 16t-29 22t-23 27t-9 31z" />
<glyph unicode="&#xdb;" horiz-adv-x="1056" d="M60 952q-2 156 0 303t0 259q6 20 21 22t34 -3t39 -13t36 -10q12 -84 12 -207t-2 -262t0 -282t19 -263t53 -206t103 -114t168 17t249 185q-8 130 -13 288t1 325t26 330t62 301q34 0 66 1t48 -39q-30 -124 -47 -218t-24 -179t-8 -174t-1 -203q0 -104 7 -206t16 -204 t17 -204t8 -206q-38 0 -72 15t-57 42t-32 63t3 78q-160 -136 -277 -175t-198 -6t-130 126t-77 223t-38 285t-12 311zM203 1843q-1 9 1 19q44 80 91 143t88 123t73 125t48 151q18 42 58 42q2 0 -7 11t-11 15t11 -6t57 -53t129 -126t227 -225q28 -72 23 -106t-31 -41t-65 7 t-77 42q-20 18 -47 46t-55 59t-55 60t-45 49l-262 -392q-20 -16 -45 -27t-47 -10t-39 17t-19 58q0 10 -1 19z" />
<glyph unicode="&#xdc;" horiz-adv-x="1056" d="M60 952q-2 156 0 303t0 259q6 20 21 22t34 -3t39 -13t36 -10q12 -84 12 -207t-2 -262t0 -282t19 -263t53 -206t103 -114t168 17t249 185q-8 130 -13 288t1 325t26 330t62 301q34 0 66 1t48 -39q-30 -124 -47 -218t-24 -179t-8 -174t-1 -203q0 -104 7 -206t16 -204 t17 -204t8 -206q-38 0 -72 15t-57 42t-32 63t3 78q-160 -136 -277 -175t-198 -6t-130 126t-77 223t-38 285t-12 311zM302 1846q14 0 42 1t56 -5t49 -21t21 -45q0 -14 -3 -31t-9 -32t-17 -25t-29 -10q-30 0 -50 18t-34 44t-20 55t-6 51zM586 1846q14 0 42 1t56 -5t49 -21 t21 -45q0 -14 -3 -31t-9 -32t-17 -25t-29 -10q-30 0 -50 18t-34 44t-20 55t-6 51z" />
<glyph unicode="&#xdd;" horiz-adv-x="1208" d="M48 1560q6 20 19 29t28 11t33 1t34 -3q48 -104 103 -218t119 -224t140 -211t166 -177q84 208 144 351t101 236t65 143t37 74t18 28t7 4q84 0 84 -82q0 -6 -2 -20t-2 -16l-566 -1548q0 -2 -6 -3t-10 -1q-46 0 -73 37t-23 81q2 18 15 62t30 102t36 122t35 120t26 100t8 60 q-90 116 -169 227t-150 224t-132 234t-115 257zM626 1966q0 4 1 11t3 7l460 302l42 -152q-38 -10 -96 -43t-119 -74t-117 -82t-88 -65q-10 6 -25 16t-29 22t-23 27t-9 31z" />
<glyph unicode="&#xe0;" horiz-adv-x="1044" d="M52 526q-4 40 6 109t32 148t56 161t80 149t101 108t121 41q130 12 211 -51t133 -173l10 -646q0 -44 28 -75t68 -51t87 -29t85 -9l4 -146q-80 0 -131 12t-92 40t-78 72t-91 108q-24 -44 -59 -96t-80 -96t-96 -74t-107 -30q-94 0 -151 57t-87 139t-40 173t-10 159zM198 510 q0 -34 6 -94t23 -120t48 -104t83 -44q58 -6 98 31t72 109t62 174t66 228q34 164 15 258t-68 127t-117 8t-130 -100t-108 -195t-50 -278zM294 1694l38 152l414 -302q2 0 3 -7t1 -11q0 -34 -29 -58t-49 -38q-30 24 -79 65t-104 82t-108 74t-87 43z" />
<glyph unicode="&#xe1;" horiz-adv-x="1044" d="M52 526q-4 40 6 109t32 148t56 161t80 149t101 108t121 41q130 12 211 -51t133 -173l10 -646q0 -44 28 -75t68 -51t87 -29t85 -9l4 -146q-80 0 -131 12t-92 40t-78 72t-91 108q-24 -44 -59 -96t-80 -96t-96 -74t-107 -30q-94 0 -151 57t-87 139t-40 173t-10 159zM198 510 q0 -34 6 -94t23 -120t48 -104t83 -44q58 -6 98 31t72 109t62 174t66 228q34 164 15 258t-68 127t-117 8t-130 -100t-108 -195t-50 -278zM268 1518q0 4 1 11t3 7l460 302l42 -152q-38 -10 -96 -43t-119 -74t-117 -82t-88 -65q-10 6 -25 16t-29 22t-23 27t-9 31z" />
<glyph unicode="&#xe2;" horiz-adv-x="1044" d="M52 526q-4 40 6 109t32 148t56 161t80 149t101 108t121 41q130 12 211 -51t133 -173l10 -646q0 -44 28 -75t68 -51t87 -29t85 -9l4 -146q-80 0 -131 12t-92 40t-78 72t-91 108q-24 -44 -59 -96t-80 -96t-96 -74t-107 -30q-94 0 -151 57t-87 139t-40 173t-10 159z M105 1515q-1 9 1 19q44 80 91 143t88 123t73 125t48 151q18 42 58 42q2 0 -7 11t-11 15t11 -6t57 -53t129 -126t227 -225q28 -72 23 -106t-31 -41t-65 7t-77 42q-20 18 -47 46t-55 59t-55 60t-45 49l-262 -392q-20 -16 -45 -27t-47 -10t-39 17t-19 58q0 10 -1 19zM198 510 q0 -34 6 -94t23 -120t48 -104t83 -44q58 -6 98 31t72 109t62 174t66 228q34 164 15 258t-68 127t-117 8t-130 -100t-108 -195t-50 -278z" />
<glyph unicode="&#xe3;" horiz-adv-x="1044" d="M46 1438q16 44 32 101t38 108t56 87t86 36q12 6 43 8t82 -18t123 -70t166 -144q62 8 79 44t18 81t0 91t25 76l30 -5t37 -8t35 -14t22 -23q4 -70 -1 -147t-28 -140t-70 -101t-129 -28q-84 42 -135 81t-89 69t-76 48t-94 18q-54 -22 -75 -47t-26 -49t-2 -44t-3 -32 q-8 0 -29 1t-44 4t-43 7t-28 10zM52 526q-4 40 6 109t32 148t56 161t80 149t101 108t121 41q130 12 211 -51t133 -173l10 -646q0 -44 28 -75t68 -51t87 -29t85 -9l4 -146q-80 0 -131 12t-92 40t-78 72t-91 108q-24 -44 -59 -96t-80 -96t-96 -74t-107 -30q-94 0 -151 57 t-87 139t-40 173t-10 159zM198 510q0 -34 6 -94t23 -120t48 -104t83 -44q58 -6 98 31t72 109t62 174t66 228q34 164 15 258t-68 127t-117 8t-130 -100t-108 -195t-50 -278z" />
<glyph unicode="&#xe4;" horiz-adv-x="1044" d="M52 526q-4 40 6 109t32 148t56 161t80 149t101 108t121 41q130 12 211 -51t133 -173l10 -646q0 -44 28 -75t68 -51t87 -29t85 -9l4 -146q-80 0 -131 12t-92 40t-78 72t-91 108q-24 -44 -59 -96t-80 -96t-96 -74t-107 -30q-94 0 -151 57t-87 139t-40 173t-10 159zM198 510 q0 -34 6 -94t23 -120t48 -104t83 -44q58 -6 98 31t72 109t62 174t66 228q34 164 15 258t-68 127t-117 8t-130 -100t-108 -195t-50 -278zM296 1536q14 0 42 1t56 -5t49 -21t21 -45q0 -14 -3 -31t-9 -32t-17 -25t-29 -10q-30 0 -50 18t-34 44t-20 55t-6 51zM580 1536 q14 0 42 1t56 -5t49 -21t21 -45q0 -14 -3 -31t-9 -32t-17 -25t-29 -10q-30 0 -50 18t-34 44t-20 55t-6 51z" />
<glyph unicode="&#xe5;" horiz-adv-x="1044" d="M52 526q-4 40 6 109t32 148t56 161t80 149t101 108t121 41q130 12 211 -51t133 -173l10 -646q0 -44 28 -75t68 -51t87 -29t85 -9l4 -146q-80 0 -131 12t-92 40t-78 72t-91 108q-24 -44 -59 -96t-80 -96t-96 -74t-107 -30q-94 0 -151 57t-87 139t-40 173t-10 159zM198 510 q0 -34 6 -94t23 -120t48 -104t83 -44q58 -6 98 31t72 109t62 174t66 228q34 164 15 258t-68 127t-117 8t-130 -100t-108 -195t-50 -278zM264 1434q0 68 44 111t110 69q40 16 96 -6t108 -61t91 -87t45 -86q8 -52 -17 -94t-66 -72t-90 -46t-91 -16q-76 0 -121 31t-69 75 t-32 94t-8 88zM375 1388q-5 -42 19 -66t62 -37t60 -27q18 0 39 2t39 9t31 23t19 44q6 36 -12 67t-50 53t-69 34t-69 12q-64 -72 -69 -114z" />
<glyph unicode="&#xe6;" horiz-adv-x="1476" d="M88 544q-4 40 6 109t32 148t56 161t80 149t101 108t121 41q122 10 200 -45t130 -153q46 72 119 111t205 39q92 0 155 -42t63 -142q0 -110 -43 -186t-114 -129t-159 -87t-178 -60q0 -10 -1 -38t-1 -38q4 -70 18 -123t36 -93q18 -52 45 -85t80 -46t140 -6t225 35 q28 6 22 -20t-44 -60t-108 -63t-170 -31q-68 0 -116 14l-22 -38q-66 0 -105 14t-61 38t-31 56t-15 69t-13 78t-23 83q-24 -44 -59 -96t-80 -96t-96 -74t-107 -30q-94 0 -151 57t-87 139t-40 173t-10 159zM234 528q0 -34 6 -94t23 -120t48 -104t83 -44q58 -6 98 31t72 109 t62 174t66 228q34 164 15 258t-68 127t-117 8t-130 -100t-108 -195t-50 -278zM860 772q0 -16 7 -36t31 -20q48 0 102 23t99 59t75 83t30 95q0 50 -10 85t-66 35q-70 0 -120 -26t-83 -71t-49 -104t-16 -123z" />
<glyph unicode="&#xe7;" horiz-adv-x="792" d="M54 696q0 46 4 107t16 127t33 130t54 114t79 81t110 31q60 0 113 -22t92 -62t62 -94t23 -116q-56 0 -88 22t-58 49t-51 49t-65 22q-48 0 -79 -24t-50 -63t-29 -88t-13 -98t-3 -93v-72q0 -44 5 -102t19 -119t36 -119t56 -104t81 -74t109 -28q32 0 56 13t47 30t48 30t57 13 q0 -48 -25 -92t-63 -76t-86 -51t-92 -19q-70 0 -127 38t-101 98t-76 136t-53 154t-31 149t-10 123zM148 -298q38 48 57 59t29 1t18 -36t23 -51t43 -43t80 -14q36 8 65 26t29 36q0 46 -38 77t-83 59t-82 58t-37 76q0 108 18 154t42 52t50 -20t42 -61t17 -72t-23 -53 q0 -48 41 -79t90 -59t90 -59t41 -79q0 -38 -30 -68t-78 -50t-107 -31t-115 -11q-44 0 -80 18t-61 46t-36 61t-5 63z" />
<glyph unicode="&#xe8;" horiz-adv-x="978" d="M-42 912q0 34 25 48t53 14q4 0 19 -2t19 -2q34 -136 61 -190t49 -64t40 8t36 30q26 106 52 191t71 144t116 91t189 32q92 0 155 -42t63 -142q0 -110 -43 -186t-114 -129t-159 -87t-178 -60q0 -10 -1 -38t-1 -38q12 -142 56 -219t103 -110t126 -33t124 13t95 26t40 5 q10 -26 2 -56t-41 -56t-97 -43t-164 -19q-86 0 -147 26t-102 71t-66 104t-41 125t-28 133t-24 129q-58 -44 -105 -19t-82 83t-60 132t-41 130zM260 1694l38 152l414 -302q2 0 3 -7t1 -11q0 -34 -29 -58t-49 -38q-30 24 -79 65t-104 82t-108 74t-87 43zM410 772q0 -16 7 -36 t31 -20q48 0 102 23t99 59t75 83t30 95q0 50 -10 85t-66 35q-70 0 -120 -26t-83 -71t-49 -104t-16 -123z" />
<glyph unicode="&#xe9;" horiz-adv-x="978" d="M-42 912q0 34 25 48t53 14q4 0 19 -2t19 -2q34 -136 61 -190t49 -64t40 8t36 30q26 106 52 191t71 144t116 91t189 32q92 0 155 -42t63 -142q0 -110 -43 -186t-114 -129t-159 -87t-178 -60q0 -10 -1 -38t-1 -38q12 -142 56 -219t103 -110t126 -33t124 13t95 26t40 5 q10 -26 2 -56t-41 -56t-97 -43t-164 -19q-86 0 -147 26t-102 71t-66 104t-41 125t-28 133t-24 129q-58 -44 -105 -19t-82 83t-60 132t-41 130zM236 1518q0 4 1 11t3 7l460 302l42 -152q-38 -10 -96 -43t-119 -74t-117 -82t-88 -65q-10 6 -25 16t-29 22t-23 27t-9 31z M410 772q0 -16 7 -36t31 -20q48 0 102 23t99 59t75 83t30 95q0 50 -10 85t-66 35q-70 0 -120 -26t-83 -71t-49 -104t-16 -123z" />
<glyph unicode="&#xea;" horiz-adv-x="978" d="M-42 912q0 34 25 48t53 14q4 0 19 -2t19 -2q34 -136 61 -190t49 -64t40 8t36 30q26 106 52 191t71 144t116 91t189 32q92 0 155 -42t63 -142q0 -110 -43 -186t-114 -129t-159 -87t-178 -60q0 -10 -1 -38t-1 -38q12 -142 56 -219t103 -110t126 -33t124 13t95 26t40 5 q10 -26 2 -56t-41 -56t-97 -43t-164 -19q-86 0 -147 26t-102 71t-66 104t-41 125t-28 133t-24 129q-58 -44 -105 -19t-82 83t-60 132t-41 130zM73 1515q-1 9 1 19q44 80 91 143t88 123t73 125t48 151q18 42 58 42q2 0 -7 11t-11 15t11 -6t57 -53t129 -126t227 -225 q28 -72 23 -106t-31 -41t-65 7t-77 42q-20 18 -47 46t-55 59t-55 60t-45 49l-262 -392q-20 -16 -45 -27t-47 -10t-39 17t-19 58q0 10 -1 19zM410 772q0 -16 7 -36t31 -20q48 0 102 23t99 59t75 83t30 95q0 50 -10 85t-66 35q-70 0 -120 -26t-83 -71t-49 -104t-16 -123z" />
<glyph unicode="&#xeb;" horiz-adv-x="978" d="M-42 912q0 34 25 48t53 14q4 0 19 -2t19 -2q34 -136 61 -190t49 -64t40 8t36 30q26 106 52 191t71 144t116 91t189 32q92 0 155 -42t63 -142q0 -110 -43 -186t-114 -129t-159 -87t-178 -60q0 -10 -1 -38t-1 -38q12 -142 56 -219t103 -110t126 -33t124 13t95 26t40 5 q10 -26 2 -56t-41 -56t-97 -43t-164 -19q-86 0 -147 26t-102 71t-66 104t-41 125t-28 133t-24 129q-58 -44 -105 -19t-82 83t-60 132t-41 130zM262 1536q14 0 42 1t56 -5t49 -21t21 -45q0 -14 -3 -31t-9 -32t-17 -25t-29 -10q-30 0 -50 18t-34 44t-20 55t-6 51zM410 772 q0 -16 7 -36t31 -20q48 0 102 23t99 59t75 83t30 95q0 50 -10 85t-66 35q-70 0 -120 -26t-83 -71t-49 -104t-16 -123zM546 1536q14 0 42 1t56 -5t49 -21t21 -45q0 -14 -3 -31t-9 -32t-17 -25t-29 -10q-30 0 -50 18t-34 44t-20 55t-6 51z" />
<glyph unicode="&#xec;" horiz-adv-x="302" d="M-76 1694l38 152l414 -302q2 0 3 -7t1 -11q0 -34 -29 -58t-49 -38q-30 24 -79 65t-104 82t-108 74t-87 43zM38 906q-2 20 11 29t32 11t39 0t32 -2q30 -104 52 -219t36 -232t21 -232t7 -223h-154z" />
<glyph unicode="&#xed;" horiz-adv-x="302" d="M-102 1518q0 4 1 11t3 7l460 302l42 -152q-38 -10 -96 -43t-119 -74t-117 -82t-88 -65q-10 6 -25 16t-29 22t-23 27t-9 31zM38 906l76 -868h154q0 108 -7 223t-21 232t-36 232t-52 219q-12 0 -32 2t-39 0t-32 -11t-11 -29z" />
<glyph unicode="&#xee;" horiz-adv-x="302" d="M-267 1515q-1 9 1 19q44 80 91 143t88 123t73 125t48 151q18 42 58 42l-8 11t-10 15t11 -6t57 -53t129 -126t227 -225q28 -72 23 -106t-31 -41t-65 7t-77 42q-20 18 -47 46t-55 59t-55 60t-45 49l-262 -392q-20 -16 -45 -27t-47 -10t-39 17t-19 58q0 10 -1 19zM38 906 q-2 20 11 29t32 11t39 0t32 -2q30 -104 52 -219t36 -232t21 -232t7 -223h-154z" />
<glyph unicode="&#xef;" horiz-adv-x="302" d="M-74 1536q14 0 42 1t56 -5t49 -21t21 -45q0 -14 -3 -31t-9 -32t-17 -25t-29 -10q-30 0 -50 18t-34 44t-20 55t-6 51zM38 906q-2 20 11 29t32 11t39 0t32 -2q30 -104 52 -219t36 -232t21 -232t7 -223h-154zM210 1536q14 0 42 1t56 -5t49 -21t21 -45q0 -14 -3 -31t-9 -32 t-17 -25t-29 -10q-30 0 -50 18t-34 44t-20 55t-6 51z" />
<glyph unicode="&#xf1;" horiz-adv-x="1056" d="M56 1056q-2 22 16 31t44 12t51 0t39 -5q6 -20 14 -53t15 -70t10 -74t-1 -67q38 32 86 72t102 74t112 58t116 24q66 0 112 -34t78 -86t49 -112t25 -110q2 -10 7 -49t12 -94t15 -121t16 -130t15 -119t11 -89v-22q0 -34 -24 -45t-52 -11q-24 0 -45 4t-31 36q-2 24 -7 74 t-12 113t-16 133t-16 133t-14 113t-11 74q-4 28 -14 62t-28 63t-44 49t-62 20q-58 0 -116 -40t-110 -92t-93 -102t-61 -72q0 -118 18 -236t22 -244q0 -20 -1 -39t-8 -36t-23 -29t-46 -20q-16 -4 -44 10t-30 28zM86 1230q16 44 32 101t38 108t56 87t86 36q12 6 43 8t82 -18 t123 -70t166 -144q62 8 79 44t18 81t0 91t25 76l30 -5t37 -8t35 -14t22 -23q4 -70 -1 -147t-28 -140t-70 -101t-129 -28q-84 42 -135 81t-89 69t-76 48t-94 18q-54 -22 -75 -47t-26 -49t-2 -44t-3 -32q-8 0 -29 1t-44 4t-43 7t-28 10z" />
<glyph unicode="&#xf2;" horiz-adv-x="830" d="M47 469q1 81 16 173t44 184t75 163t109 110t145 27q122 0 197 -37t116 -101t55 -151t14 -187q10 -66 4 -143t-27 -152t-57 -142t-89 -118t-121 -78t-152 -19q-164 0 -243 91t-79 249q-8 50 -7 131zM186 1694l38 152l414 -302q2 0 3 -7t1 -11q0 -34 -29 -58t-49 -38 q-30 24 -79 65t-104 82t-108 74t-87 43zM200 487q-4 -53 4 -75q0 -52 2 -99t17 -84t48 -59t93 -22q80 0 143 56t107 135t68 165t24 146q0 98 -23 166t-57 110t-75 61t-77 23q-46 0 -87 -39t-74 -98t-57 -130t-38 -137t-18 -119z" />
<glyph unicode="&#xf3;" horiz-adv-x="830" d="M47 469q1 81 16 173t44 184t75 163t109 110t145 27q122 0 197 -37t116 -101t55 -151t14 -187q10 -66 4 -143t-27 -152t-57 -142t-89 -118t-121 -78t-152 -19q-164 0 -243 91t-79 249q-8 50 -7 131zM162 1518q0 4 1 11t3 7l460 302l42 -152q-38 -10 -96 -43t-119 -74 t-117 -82t-88 -65q-10 6 -25 16t-29 22t-23 27t-9 31zM200 487q-4 -53 4 -75q0 -52 2 -99t17 -84t48 -59t93 -22q80 0 143 56t107 135t68 165t24 146q0 98 -23 166t-57 110t-75 61t-77 23q-46 0 -87 -39t-74 -98t-57 -130t-38 -137t-18 -119z" />
<glyph unicode="&#xf4;" horiz-adv-x="830" d="M-1 1515q-1 9 1 19q44 80 91 143t88 123t73 125t48 151q18 42 58 42q2 0 -7 11t-11 15t11 -6t57 -53t129 -126t227 -225q28 -72 23 -106t-31 -41t-65 7t-77 42q-20 18 -47 46t-55 59t-55 60t-45 49l-262 -392q-20 -16 -45 -27t-47 -10t-39 17t-19 58q0 10 -1 19zM47 469 q1 81 16 173t44 184t75 163t109 110t145 27q122 0 197 -37t116 -101t55 -151t14 -187q10 -66 4 -143t-27 -152t-57 -142t-89 -118t-121 -78t-152 -19q-164 0 -243 91t-79 249q-8 50 -7 131zM200 487q-4 -53 4 -75q0 -52 2 -99t17 -84t48 -59t93 -22q80 0 143 56t107 135 t68 165t24 146q0 98 -23 166t-57 110t-75 61t-77 23q-46 0 -87 -39t-74 -98t-57 -130t-38 -137t-18 -119z" />
<glyph unicode="&#xf5;" horiz-adv-x="830" d="M-24 1230q16 44 32 101t38 108t56 87t86 36q12 6 43 8t82 -18t123 -70t166 -144q62 8 79 44t18 81t0 91t25 76l30 -5t37 -8t35 -14t22 -23q4 -70 -1 -147t-28 -140t-70 -101t-129 -28q-84 42 -135 81t-89 69t-76 48t-94 18q-54 -22 -75 -47t-26 -49t-2 -44t-3 -32 q-8 0 -29 1t-44 4t-43 7t-28 10zM47 469q1 81 16 173t44 184t75 163t109 110t145 27q122 0 197 -37t116 -101t55 -151t14 -187q10 -66 4 -143t-27 -152t-57 -142t-89 -118t-121 -78t-152 -19q-164 0 -243 91t-79 249q-8 50 -7 131zM200 487q-4 -53 4 -75q0 -52 2 -99t17 -84 t48 -59t93 -22q80 0 143 56t107 135t68 165t24 146q0 98 -23 166t-57 110t-75 61t-77 23q-46 0 -87 -39t-74 -98t-57 -130t-38 -137t-18 -119z" />
<glyph unicode="&#xf6;" horiz-adv-x="830" d="M47 469q1 81 16 173t44 184t75 163t109 110t145 27q122 0 197 -37t116 -101t55 -151t14 -187q10 -66 4 -143t-27 -152t-57 -142t-89 -118t-121 -78t-152 -19q-164 0 -243 91t-79 249q-8 50 -7 131zM192 1536q14 0 42 1t56 -5t49 -21t21 -45q0 -14 -3 -31t-9 -32t-17 -25 t-29 -10q-30 0 -50 18t-34 44t-20 55t-6 51zM200 487q-4 -53 4 -75q0 -52 2 -99t17 -84t48 -59t93 -22q80 0 143 56t107 135t68 165t24 146q0 98 -23 166t-57 110t-75 61t-77 23q-46 0 -87 -39t-74 -98t-57 -130t-38 -137t-18 -119zM476 1536q14 0 42 1t56 -5t49 -21t21 -45 q0 -14 -3 -31t-9 -32t-17 -25t-29 -10q-30 0 -50 18t-34 44t-20 55t-6 51z" />
<glyph unicode="&#xf7;" horiz-adv-x="760" d="M20 599q-6 23 3 45t29 41t42 27q20 2 61 5t93 6t109 8t110 8t94 6t61 5h22q34 0 46 -25t12 -53q0 -24 -11 -38t-28 -21t-38 -9t-41 -4t-61 -5t-94 -6t-110 -8t-109 -8t-93 -6t-61 -5q-30 14 -36 37zM292 956q0 36 30 66t66 30q30 0 45 -20t20 -48t5 -56v-42h-43t-55 5 t-48 20t-20 45zM294 296q22 46 48 63t68 17q34 0 53 -15t19 -65q0 -78 -54 -78q-38 0 -76 23t-58 55z" />
<glyph unicode="&#xf8;" horiz-adv-x="830" d="M-36 -183q0 3 1 9.5t1 7.5l820 1471q25 -14 48.5 -34t20.5 -54l-793 -1449q0 -2 -11 -3.5t-16 -1.5q-25 0 -48 12t-23 42zM47 469q1 81 16 173t44 184t75 163t109 110t145 27q122 0 197 -37t116 -101t55 -151t14 -187q10 -66 4 -143t-27 -152t-57 -142t-89 -118t-121 -78 t-152 -19q-164 0 -243 91t-79 249q-8 50 -7 131zM200 487q-4 -53 4 -75q0 -52 2 -99t17 -84t48 -59t93 -22q80 0 143 56t107 135t68 165t24 146q0 98 -23 166t-57 110t-75 61t-77 23q-46 0 -87 -39t-74 -98t-57 -130t-38 -137t-18 -119z" />
<glyph unicode="&#xf9;" horiz-adv-x="1000" d="M59 718q-5 110 4 208t31 168q4 0 19 2t19 2q24 0 44 -5t30 -37q-8 -102 -10 -185t6 -161t27 -158t53 -174q30 -98 70 -138t86 -36t93 44t90 101t78 135t57 147t28 136t-12 101q0 4 -6 21t-12 36t-12 36t-6 21q0 22 20 30t36 8q80 -34 108 -120t15 -197t-60 -231 t-113 -223t-147 -172t-161 -77q-96 34 -164 109t-113 173t-69 212t-29 224zM272 1694l38 152l414 -302q2 0 3 -7t1 -11q0 -34 -29 -58t-49 -38q-30 24 -79 65t-104 82t-108 74t-87 43z" />
<glyph unicode="&#xfa;" horiz-adv-x="1000" d="M59 718q-5 110 4 208t31 168q4 0 19 2t19 2q24 0 44 -5t30 -37q-8 -102 -10 -185t6 -161t27 -158t53 -174q30 -98 70 -138t86 -36t93 44t90 101t78 135t57 147t28 136t-12 101q0 4 -6 21t-12 36t-12 36t-6 21q0 22 20 30t36 8q80 -34 108 -120t15 -197t-60 -231 t-113 -223t-147 -172t-161 -77q-96 34 -164 109t-113 173t-69 212t-29 224zM246 1518q0 4 1 11t3 7l460 302l42 -152q-38 -10 -96 -43t-119 -74t-117 -82t-88 -65q-10 6 -25 16t-29 22t-23 27t-9 31z" />
<glyph unicode="&#xfb;" horiz-adv-x="1000" d="M59 718q-5 110 4 208t31 168q4 0 19 2t19 2q24 0 44 -5t30 -37q-8 -102 -10 -185t6 -161t27 -158t53 -174q30 -98 70 -138t86 -36t93 44t90 101t78 135t57 147t28 136t-12 101q0 4 -6 21t-12 36t-12 36t-6 21q0 22 20 30t36 8q80 -34 108 -120t15 -197t-60 -231 t-113 -223t-147 -172t-161 -77q-96 34 -164 109t-113 173t-69 212t-29 224zM83 1515q-1 9 1 19q44 80 91 143t88 123t73 125t48 151q18 42 58 42q2 0 -7 11t-11 15t11 -6t57 -53t129 -126t227 -225q28 -72 23 -106t-31 -41t-65 7t-77 42q-20 18 -47 46t-55 59t-55 60t-45 49 l-262 -392q-20 -16 -45 -27t-47 -10t-39 17t-19 58q0 10 -1 19z" />
<glyph unicode="&#xfc;" horiz-adv-x="1000" d="M59 718q-5 110 4 208t31 168q4 0 19 2t19 2q24 0 44 -5t30 -37q-8 -102 -10 -185t6 -161t27 -158t53 -174q30 -98 70 -138t86 -36t93 44t90 101t78 135t57 147t28 136t-12 101q0 4 -6 21t-12 36t-12 36t-6 21q0 22 20 30t36 8q80 -34 108 -120t15 -197t-60 -231 t-113 -223t-147 -172t-161 -77q-96 34 -164 109t-113 173t-69 212t-29 224zM274 1536q14 0 42 1t56 -5t49 -21t21 -45q0 -14 -3 -31t-9 -32t-17 -25t-29 -10q-30 0 -50 18t-34 44t-20 55t-6 51zM558 1536q14 0 42 1t56 -5t49 -21t21 -45q0 -14 -3 -31t-9 -32t-17 -25 t-29 -10q-30 0 -50 18t-34 44t-20 55t-6 51z" />
<glyph unicode="&#xfd;" horiz-adv-x="1148" d="M14 1078q0 32 8 63t50 31q22 0 33 -9t23 -31l530 -830l338 792q10 22 24 31t34 9q26 -2 40 -18t19 -40t4 -49t-7 -45l-566 -1472q-4 -10 -18 -24t-20 -14t-23 4t-35 10t-33 13t-21 11q36 138 84 269t106 277q-54 118 -123 226t-144 226t-153 255t-150 315zM320 1518 q0 4 1 11t3 7l460 302l42 -152q-38 -10 -96 -43t-119 -74t-117 -82t-88 -65q-10 6 -25 16t-29 22t-23 27t-9 31z" />
<glyph unicode="&#xff;" horiz-adv-x="1148" d="M14 1078q0 32 8 63t50 31q22 0 33 -9t23 -31l530 -830l338 792q10 22 24 31t34 9q26 -2 40 -18t19 -40t4 -49t-7 -45l-566 -1472q-4 -10 -18 -24t-20 -14t-23 4t-35 10t-33 13t-21 11q36 138 84 269t106 277q-54 118 -123 226t-144 226t-153 255t-150 315zM348 1536 q14 0 42 1t56 -5t49 -21t21 -45q0 -14 -3 -31t-9 -32t-17 -25t-29 -10q-30 0 -50 18t-34 44t-20 55t-6 51zM632 1536q14 0 42 1t56 -5t49 -21t21 -45q0 -14 -3 -31t-9 -32t-17 -25t-29 -10q-30 0 -50 18t-34 44t-20 55t-6 51z" />
<glyph unicode="&#x152;" horiz-adv-x="1896" d="M46 458q0 66 14 166t42 210t72 221t104 199t137 143t173 55q82 0 144 -37t107 -97t76 -138t49 -160t26 -161t8 -141q0 -132 -46 -265t-131 -239t-205 -173t-266 -67q-88 0 -146 51t-93 126t-50 158t-15 149zM198 456q0 -62 7 -122t30 -106t65 -75t112 -29q62 0 132 30 t132 79t107 110t59 123q0 14 1 49t2 74t1 74v49q0 58 -2 124t-12 131t-31 125t-57 106t-91 73t-133 27q-44 0 -85 -51t-76 -131t-65 -178t-51 -192t-33 -172t-12 -118zM874 114l20 1372q4 16 67 32t158 29t207 23t214 17t179 11t103 4q20 0 44 -2t43 -9t32 -22t13 -41 q0 -40 -38 -61t-102 -30t-145 -9t-167 1t-170 1t-153 -9t-115 -28t-56 -57q6 -24 3 -65t-8 -89t-7 -100t6 -100q54 -4 125 -3t147 3t151 5t135 5q0 -62 -19 -96t-95 -56q-28 -6 -90 -8t-132 -2t-132 -1t-90 -3q2 -84 4 -177t0 -180t-7 -160t-15 -119q44 4 104 3t128 -4 t140 -4t137 1t120 11t91 29q78 0 78 -54q2 -10 -3 -25t-13 -30t-15 -27t-9 -14l-754 -76q-16 -2 -37 9t-39 29t-30 38t-8 38z" />
<glyph unicode="&#x153;" horiz-adv-x="1808" d="M150 521q2 81 17 173t44 184t75 163t109 110t145 27q148 0 229 -54t115 -146q22 48 51 85t70 62t97 39t132 14q92 0 155 -42t63 -142q0 -110 -43 -186t-114 -129t-159 -87t-178 -60q0 -10 -1 -38t-1 -38q12 -142 56 -219t103 -110t126 -33t124 13t95 26t40 5 q10 -26 2 -56t-41 -56t-97 -43t-164 -19q-84 0 -143 25t-100 67t-67 98t-42 120q-56 -104 -147 -169t-221 -55q-164 0 -243 91t-79 249q-10 50 -8 131zM304 539q-4 -53 4 -75q0 -52 2 -99t17 -84t48 -59t93 -22q64 0 117 37t95 94t70 125t44 132l12 132q0 4 1 7t1 7 q-4 90 -27 151t-57 99t-73 56t-73 22q-46 0 -87 -39t-74 -98t-57 -130t-38 -137t-18 -119zM956 738q0 -16 7 -36t31 -20q48 0 102 23t99 59t75 83t30 95q0 50 -10 85t-66 35q-70 0 -120 -26t-83 -71t-49 -104t-16 -123z" />
<glyph unicode="&#x178;" horiz-adv-x="1208" d="M48 1560q6 20 19 29t28 11t33 1t34 -3q48 -104 103 -218t119 -224t140 -211t166 -177q84 208 144 351t101 236t65 143t37 74t18 28t7 4q84 0 84 -82q0 -6 -2 -20t-2 -16l-566 -1548q0 -2 -6 -3t-10 -1q-46 0 -73 37t-23 81q2 18 15 62t30 102t36 122t35 120t26 100t8 60 q-90 116 -169 227t-150 224t-132 234t-115 257zM378 1864q14 0 42 1t56 -5t49 -21t21 -45q0 -14 -3 -31t-9 -32t-17 -25t-29 -10q-30 0 -50 18t-34 44t-20 55t-6 51zM662 1864q14 0 42 1t56 -5t49 -21t21 -45q0 -14 -3 -31t-9 -32t-17 -25t-29 -10q-30 0 -50 18t-34 44 t-20 55t-6 51z" />
<glyph unicode="&#x2c6;" horiz-adv-x="1132" d="M133 1515q-1 9 1 19q44 80 91 143t88 123t73 125t48 151q18 42 58 42q2 0 -7 11t-11 15t11 -6t57 -53t129 -126t227 -225q28 -72 23 -106t-31 -41t-65 7t-77 42q-20 18 -47 46t-55 59t-55 60t-45 49l-262 -392q-20 -16 -45 -27t-47 -10t-39 17t-19 58q0 10 -1 19z" />
<glyph unicode="&#x2dc;" horiz-adv-x="984" d="M38 1230q16 44 32 101t38 108t56 87t86 36q12 6 43 8t82 -18t123 -70t166 -144q62 8 79 44t18 81t0 91t25 76l30 -5t37 -8t35 -14t22 -23q4 -70 -1 -147t-28 -140t-70 -101t-129 -28q-84 42 -135 81t-89 69t-76 48t-94 18q-54 -22 -75 -47t-26 -49t-2 -44t-3 -32 q-8 0 -29 1t-44 4t-43 7t-28 10z" />
<glyph unicode="&#x2000;" horiz-adv-x="1590" />
<glyph unicode="&#x2001;" horiz-adv-x="3181" />
<glyph unicode="&#x2002;" horiz-adv-x="1590" />
<glyph unicode="&#x2003;" horiz-adv-x="3181" />
<glyph unicode="&#x2004;" horiz-adv-x="1060" />
<glyph unicode="&#x2005;" horiz-adv-x="795" />
<glyph unicode="&#x2006;" horiz-adv-x="530" />
<glyph unicode="&#x2007;" horiz-adv-x="530" />
<glyph unicode="&#x2008;" horiz-adv-x="397" />
<glyph unicode="&#x2009;" horiz-adv-x="636" />
<glyph unicode="&#x200a;" horiz-adv-x="176" />
<glyph unicode="&#x2010;" horiz-adv-x="1208" d="M56 804q0 18 11 26t26 11t29 3h22q134 -14 217 -20t139 -8t99 -2t97 -4t130 -16t200 -34q32 -6 58 -12t46 -18t31 -34t11 -58q-154 18 -280 31t-249 22t-254 17t-295 20q-4 2 -11 13t-13 23t-10 23t-4 17z" />
<glyph unicode="&#x2011;" horiz-adv-x="1208" d="M56 804q0 18 11 26t26 11t29 3h22q134 -14 217 -20t139 -8t99 -2t97 -4t130 -16t200 -34q32 -6 58 -12t46 -18t31 -34t11 -58q-154 18 -280 31t-249 22t-254 17t-295 20q-4 2 -11 13t-13 23t-10 23t-4 17z" />
<glyph unicode="&#x2012;" horiz-adv-x="1208" d="M56 804q0 18 11 26t26 11t29 3h22q134 -14 217 -20t139 -8t99 -2t97 -4t130 -16t200 -34q32 -6 58 -12t46 -18t31 -34t11 -58q-154 18 -280 31t-249 22t-254 17t-295 20q-4 2 -11 13t-13 23t-10 23t-4 17z" />
<glyph unicode="&#x2013;" horiz-adv-x="768" d="M92 746q2 16 6 34t9 34t5 22q128 2 190 3t90 1t36 -2t26 -3t61 -3t141 -2q32 -6 49 -13t25 -21t10 -38t2 -60q-102 12 -159 17t-93 6t-61 -1t-63 -2t-101 1t-171 9q-4 2 -2 18z" />
<glyph unicode="&#x2014;" horiz-adv-x="1424" d="M56 804q0 18 11 26t26 11t29 3h22q134 -16 229 -18t170 1t139 8t135 5t160 -8t213 -30q32 -6 58 -12t46 -18t31 -34t11 -58q-154 18 -305 24t-305 7t-311 3t-321 14q-4 2 -11 13t-13 23t-10 23t-4 17z" />
<glyph unicode="&#x2018;" horiz-adv-x="320" d="M38 1548q22 40 56 40q48 0 81 -54t54 -128t31 -151t10 -125q0 -24 -1 -56t-10 -61t-29 -50t-60 -21q-16 0 -36 9t-20 31q0 4 6 21t13 36t13 35t6 20q0 2 1 24t1 32q0 102 -37 205t-79 193z" />
<glyph unicode="&#x2019;" horiz-adv-x="320" d="M38 1548q22 40 56 40q48 0 81 -54t54 -128t31 -151t10 -125q0 -24 -1 -56t-10 -61t-29 -50t-60 -21q-16 0 -36 9t-20 31q0 4 6 21t13 36t13 35t6 20q0 2 1 24t1 32q0 102 -37 205t-79 193z" />
<glyph unicode="&#x201a;" horiz-adv-x="320" d="M44 522q22 40 56 40q48 0 81 -54t54 -128t31 -151t10 -125q0 -24 -1 -56t-10 -61t-29 -50t-60 -21q-16 0 -36 9t-20 31q0 4 6 21t13 36t13 35t6 20q0 2 1 24t1 32q0 102 -37 205t-79 193z" />
<glyph unicode="&#x201c;" horiz-adv-x="474" d="M34 1880q0 20 7 31t33 25q6 -4 20 -18t18 -20q38 -90 59 -161t30 -142t10 -151t1 -188h-62q-2 60 -21 143t-40 170t-38 169t-17 142zM250 1924q-12 78 2 95t34 4t37 -41t13 -42l5 -50t11 -125t15 -163t15 -163t11 -126l5 -51q0 -22 -5 -31t-33 -23l-38 38z" />
<glyph unicode="&#x201d;" horiz-adv-x="474" d="M34 1880q0 20 7 31t33 25q6 -4 20 -18t18 -20q38 -90 59 -161t30 -142t10 -151t1 -188h-62q-2 60 -21 143t-40 170t-38 169t-17 142zM250 1924q-12 78 2 95t34 4t37 -41t13 -42l5 -50t11 -125t15 -163t15 -163t11 -126l5 -51q0 -22 -5 -31t-33 -23l-38 38z" />
<glyph unicode="&#x201e;" horiz-adv-x="474" d="M38 500q0 20 7 31t33 25q6 -4 20 -18t18 -20q38 -90 59 -161t30 -142t10 -151t1 -188h-62q-2 60 -21 143t-40 170t-38 169t-17 142zM254 544q-12 78 2 95t34 4t37 -41t13 -42l5 -50t11 -125t15 -163t15 -163t11 -126l5 -51q0 -22 -5 -31t-33 -23l-38 38z" />
<glyph unicode="&#x2022;" horiz-adv-x="440" d="M85 609q-5 35 5 57q14 34 51 51t74 11t66 -35t29 -89q0 -14 -6 -39t-16 -49t-24 -41t-32 -17q-44 2 -75 26t-49 57t-23 68z" />
<glyph unicode="&#x2026;" horiz-adv-x="852" d="M60 164q14 0 42 1t56 -5t49 -21t21 -45q0 -14 -3 -31t-9 -32t-17 -25t-29 -10q-30 0 -50 18t-34 44t-20 55t-6 51zM344 164q14 0 42 1t56 -5t49 -21t21 -45q0 -14 -3 -31t-9 -32t-17 -25t-29 -10q-30 0 -50 18t-34 44t-20 55t-6 51zM628 164q14 0 42 1t56 -5t49 -21 t21 -45q0 -14 -3 -31t-9 -32t-17 -25t-29 -10q-30 0 -50 18t-34 44t-20 55t-6 51z" />
<glyph unicode="&#x202f;" horiz-adv-x="636" />
<glyph unicode="&#x2039;" horiz-adv-x="1094" d="M34 424l9 9l21 21l25 25t21 19q24 20 74 62t113 94t133 110t133 110t113 92t74 60q40 32 83 40t91 8q0 -50 -37 -103t-95 -108t-130 -109t-142 -106t-129 -100t-93 -88h604q4 4 14 11t22 13t23 10t17 4q18 0 26 -13t11 -29t3 -32v-24q0 -46 -20 -68t-74 -22 q-38 12 -114 14t-170 1t-195 -1t-187 9t-148 30t-76 61z" />
<glyph unicode="&#x203a;" horiz-adv-x="1056" d="M54 1076q0 42 32 51t66 9q42 0 82 -12t79 -30t79 -39t80 -37q18 -6 56 -18t86 -27t102 -31t102 -31t87 -27t57 -16q54 -40 39 -91t-73 -108t-145 -121t-179 -131t-175 -135t-133 -136q-46 0 -75 15t-29 67v29t4 11t12 10t24 24q30 40 83 86t113 94t121 95t111 88t81 74 t31 53l-678 226q-40 14 -40 58z" />
<glyph unicode="&#x205f;" horiz-adv-x="795" />
<glyph unicode="&#x20ac;" horiz-adv-x="1340" d="M80 1050h278q12 76 27 167t39 185t60 182t93 157t137 110t190 41q54 0 95 -29t72 -75t52 -105t33 -117t18 -112t6 -92q-64 0 -99 28t-53 70t-25 91t-16 91t-28 70t-59 28q-66 0 -120 -34t-96 -89t-73 -124t-52 -140t-34 -136t-17 -111q48 -12 94 -2t90 28t88 35t90 17 q24 0 40 -18t16 -42q0 -28 -31 -51t-77 -42t-101 -35t-101 -29t-77 -25t-31 -24l-8 -202q24 0 80 11t113 16t102 -5t47 -52q0 -20 -9 -33t-31 -23q-16 -6 -58 -23t-90 -35t-92 -34t-62 -22q0 -66 4 -136t28 -128t74 -97t142 -45q84 0 152 40t122 102t95 136t71 140q2 0 8 1 t10 1q24 0 42 -16t18 -40q0 -94 -51 -180t-129 -152t-172 -105t-180 -39q-124 0 -194 36t-108 98t-53 142t-29 168q-16 2 -46 -7t-63 -18t-64 -13t-49 9t-17 47t31 100q4 8 27 20t52 22t55 18t36 10l8 250q-10 0 -37 5t-57 11t-57 12t-37 10q-8 4 -22 18t-16 20q-4 10 -6 26 l-4 32z" />
<glyph unicode="&#x2122;" horiz-adv-x="2438" d="M36 1452q0 46 35 72t75 26q102 0 200 -21t200 -21q100 0 172 3t137 7t135 7t166 3q0 -52 -13 -81t-39 -44t-62 -22t-84 -15q-30 -6 -83 -6t-112 1t-113 1t-84 -4q-18 -68 -31 -167t-21 -214t-13 -240t-8 -244t-5 -224t-4 -183q-24 -42 -41 -74t-32 -42t-31 8t-40 74 q6 166 16 327t17 322t10 324t-5 333q-10 2 -39 5t-67 6t-80 8t-76 15t-57 24t-23 36zM1024 72v22q2 46 10 147t18 229t20 269t20 269t17 228t11 148q-6 30 2 46t23 23t34 9t35 2q8 0 29 -1t27 -3q42 -92 79 -181t89 -158t127 -111t195 -42q76 0 131 48t96 120t74 155t67 155 t72 120t90 48q24 0 44 -5t30 -37q-28 -126 -37 -268t-10 -286t1 -287t-1 -269t-17 -232t-48 -178q-30 -32 -56 -41t-45 2t-29 41t-8 76q16 136 28 261t21 248t12 250t1 269q-68 -136 -174 -220t-260 -84q-66 0 -141 13t-142 44t-118 82t-71 127l-96 -1026q-4 -52 -20 -65 t-50 -13q-28 0 -54 11t-26 45z" />
<glyph unicode="&#x25fc;" horiz-adv-x="1100" d="M0 0v1100h1100v-1100h-1100z" />
</font>
</defs>
</svg>
